<?xml version="1.0" encoding="UTF-8"?>
<svg id="fond_noir" xmlns="http://www.w3.org/2000/svg" viewBox="0 0 1083 2417.96">
  <defs>
    <style>
      .cls-1 {
        opacity: .81;
      }

      .cls-2 {
        opacity: .54;
      }

      .cls-3 {
        opacity: .78;
      }

      .cls-4 {
        opacity: .46;
      }

      .cls-5 {
        opacity: .68;
      }

      .cls-6 {
        opacity: .49;
      }

      .cls-7 {
        opacity: .65;
      }
    </style>
  </defs>
  <path class="cls-1" d="M585.55,814.95c6.13-22.93,12.82,4.67,16.51,25.95,5.96,34.42,4.02,80.56-3.65,129.33-14.25,90.66-48.29,190.39-88.13,240.75-70.9,89.63-220.67,190.14-220.67,190.14l137.04-34c186.43-414.79,126.77,139.8,139.9,183.57l86.79,325s-108.93-460.44-83.55-623.02c25.38-162.58,35.01-396.03,66.52-483.58,31.51-87.54,244.29-12.53,244.29-12.53,0,0,2.91-56.83-12.56-61.19-86.79-24.48-433.54-185.69-370.59-210.77l-129.62-19.04s215.97,97.17,243.1,180.55c27.13,83.38-49.02,202.19-49.02,202.19l-272.31,260.46s253.93-243.78,270.56-243.78,39.39,100.05,39.39,100.05c0,0-21.71-87.46-19.26-116.73.88-10.42,3.2-25.66,5.25-33.35Z"/>
  <path class="cls-5" d="M302.69,1009.29s99.75,307.01,326.54,199.44c226.79-107.57,272.9-398.89,282.31-439.23s-8.37,179.27-100.69,291.32c-145.86,177.03,125.16,358.55,125.16,358.55,0,0-63.05-31.37-83.75,24.65-20.7,56.02,21.64-17.93-43.29-116.53-64.93-98.6-52.7-235.3-133.63-76.19-80.93,159.11,6.59,445.95,91.28,475.08,84.69,29.13,140.21-183.76,145.86-219.61s-63.05,253.23-71.52,349.59c-24.47-62.75,14.12-159.11-77.16-105.32-91.28,53.78-73.4,199.44-73.4,199.44,0,0-31.99-560.24-81.87-618.5-49.87-58.26-158.28-149.52-220.76-119.58-62.49,29.94-104.83,108.37-113.3,126.3-8.47,17.93,64.93-100.84,63.05-129.97-1.88-29.13,16.94-129.97-32.94-127.73-49.87,2.24-1.88-71.71-1.88-71.71Z"/>
  <path class="cls-4" d="M381.54,774.25s172.45,95.19,224.98-48.95c52.53-144.14,44.54-190.37,44.54-190.37,0,0-9.71,398.42,101.07,490.89,110.78,92.47,159.31-58.47,159.31-58.47,0,0-109.06,118.3-42.26,350.83-39.97-137.34-103.35-322.28-205.57-322.28s-51.86,458.35-10.85,526.25c59.96,99.27,219.84,23.12,219.84,23.12l-380.87,312.76s111.35-104.71,115.92-175.42c4.57-70.71,14.91-507.21-50.79-535.77-65.7-28.56-196.46,417.46-138.79,565.68,57.67,148.22,46.86,145.5,46.86,145.5,0,0-50.85-142.78-90.25-169.98-39.4-27.2-86.79-10.88-86.79-10.88,0,0,153.03-293.72,164.45-390.27,11.42-96.55-58.24-9.52-68.52,111.5-10.28,121.02-17.13,191.73-17.13,191.73,0,0,4-152.3,3.43-257-.57-104.71-62.24-221.65-62.24-221.65l-41.11-115.58s53.17,115.58,89.11,138.7c35.94,23.12,151.86-10.88,168.42-23.12,16.56-12.24,94.45-92.31,108.49-119.66,18.84-36.71,62.24-213.49-11.99-199.89-31.93,5.85-177.02,89.75-301.5,320.92,0,0,65.1-295.08,21.13-345.39-43.97-50.31-45.68,152.3-45.68,152.3l-11.42-265.16,98.21,119.66Z"/>
  <path class="cls-7" d="M576.86,465.57s49.65,182.21-24.59,285.56c-74.23,103.35-272.37,180.85-272.37,180.85v43.51s159.95-183.57,198.75,0c38.8,183.57,14.88,754.7-37.69,882.52-52.57,127.82,83.91,25.83,83.91,25.83,0,0-40.54-54.39-25.7-252.93,14.85-198.53,39.4-448.74,166.74-500.41,127.34-51.67,241.54,4.08,241.54,4.08v-121.02s-110.21,65.27-167.88,81.59c-57.67,16.32-192.37,106.07-208.96,69.35-16.59-36.71-73.12-277.4-28.01-327.71,45.11-50.31,264.38,84.31,276.37,184.93,11.99,100.63,2.28,77.51,2.28,77.51l54.82-14.96s-47.39-27.2-83.94-157.74,125.62-57.11,125.62-57.11l10.28-251.57s-26.84,179.5-126.19,198.53c-99.36,19.04-127.84-1.36-130.16-28.56-2.32-27.2,178.7-189.01,239.22-157.74,60.53,31.28,54.82-39.43,54.82-39.43,0,0-52.36,5.34-98.97,18.92-10.98,3.2-21.64,6.85-31.22,11-50.25,21.76-129.62,137.34-144.47,80.23-14.85-57.11,105.07-197.17,134.19-131.9,29.12,65.27,17.13,62.55,17.13,62.55l25.7-12.24s-19.99,0-30.83-39.43c-10.85-39.43-35.4-99.27-13.7-125.1,21.7-25.84-41.68,85.67-69.09,108.78-27.41,23.12-108.35,66.63-111.56-28.56-3.21-95.19,11.67-84.09,11.67-84.09l-37.69,14.74Z"/>
  <path class="cls-6" d="M502.6,434.29s33.69,161.82,1.71,225.73c-53.61,107.15-110.78-108.78-116.49-137.34-3.23-16.15-.02-119.66-.02-119.66l-65.08-6.8s86.22,174.06,94.79,297.8c8.57,123.74-9.71,470.49-113.06,535.77-103.35,65.27-24.55,319.56-24.55,319.56,0,0,57.1-221.65,89.08-278.76,31.98-57.11,160.46-57.11,170.16,153.66,9.71,210.77-61.07,498.16-61.07,498.16l126.81-27.67s-52.61-248.85-48.62-371.23,124.55-172.8,138.79-165.95c14.24,6.85,223.24,363.12,223.24,363.12l-37.47-458.26s97.43,322.28-72.74,138.7c-170.16-183.57-250.11,159.1-244.97-61.19s308.92,1.36,308.92,1.36l25.12-410.66s13.13,242.05-47.97,295.08c-61.1,53.03-208.85,50.31-246.32-95.19-37.47-145.5,88.15-134.62,93.29-57.11,5.14,77.51,12.56,197.17,62.24,345.39,49.68,148.22,76.55,72.07,76.55,72.07,0,0-129.08-297.8-130.22-428.34-1.14-130.54,197-342.67,197-342.67,0,0-133.05-121.02-105.07-263.8-58.24-53.03,111.92,515.37-135.9,383.47-4.57,89.75-35.97,251.57-236.97,339.95-82.8-191.73,130.76-696.22,240.4-705.74,109.64-9.52-161.6-39.43-161.6-39.43Z"/>
  <path class="cls-2" d="M285.04,590.67s147.32,426.98,135.33-140.06c-3.12-147.43,37.18-.35,38.86-.18s-42.22,19.21-11.99,140.24c30.23,121.02,117.03-46.23,114.46-125.1s12.85-63.91,15.13-63.91-58.81,452.82,55.39,497.69c114.2,44.87,208.57-43.1,208.57-43.1,0,0-161.17,49.89-172.59,87.97-11.42,38.07-90.22,82.95-29.12,231.17,61.1,148.22,225.55,335.87,234.69,339.95s15.42,129.18,15.42,129.18c0,0-97.53-197.28-179.29-323.43-35.62-54.95-68.24-96.41-88.52-102.19-66.81-19.04-117.92,336.8-24.52,271.96,113.6-78.87,179.27-74.79,179.27-74.79,0,0-191.29,39.43-173.59,228.45,17.47,186.49,49.11,242.05,49.11,242.05l-102.78-19.04s74.23-199.89,31.41-232.53c-42.83-32.64-71.88,205.34-50.79,223.01,21.1,17.67-58.28,17.67-58.28,17.67,0,0,87.37-213.49,83.94-285.56-3.43-72.07-125.05-322.28-109.64,274.68,15.42,596.96-206.14,91.11-206.14,91.11,0,0,177.59-24.48,181.01-165.9,3.43-141.42-36.55-257-81.08-191.73-44.54,65.27-30.26,254.28-.57,277.4,29.69,23.12-137.61-115.58-137.61-115.58l-57.1-142.78s182.15-12.24,232.4-59.83c50.25-47.59,208.42-271.13,212.7-394.61s-2-417.2-48.82-449.84c-46.82-32.64-207.28,50.31-242.68,387.55-35.4,337.23-12.56-504.49-12.56-504.49"/>
  <path class="cls-3" d="M667.62,1882.49s58.81-44.87,73.09-176.78c14.28-131.9-61.04-418.98-76.48-435.22-15.45-16.24,109.6,335.95,143.29,378.11,33.69,42.15,65.1,69.35,69.09,67.99,4-1.36-41.11-38.07-62.24,66.63-21.13,104.71,28.01,167.26,28.01,167.26l-174.76-67.99Z"/>
  <path class="cls-3" d="M451.78,1898.81s-109.64-92.47-110.78-254.28,13.17-286.97,13.17-286.97l-20.52,12.29s19.98,149.58-7.46,255.64c-27.44,106.07-67.79,182.21-67.79,182.21,0,0,42.13-58.47,53.52-61.19,11.39-2.72,11.24,53.49,4.46,65.5-6.78,12.01-33.58,16.02-33.58,16.02l-11.6-9.67,51.53,87.24s-5.71-99.27,10.28-112.86c15.99-13.6,17.13,77.51,11.99,101.99-5.14,24.48,106.78,4.08,106.78,4.08Z"/>
</svg>