<?xml version="1.0" encoding="UTF-8"?>
<svg id="fond" xmlns="http://www.w3.org/2000/svg" viewBox="0 0 1387 1302.39">
  <defs>
    <style>
      .cls-1 {
        fill: #3e8234;
        opacity: .65;
      }

      .cls-1, .cls-2, .cls-3, .cls-4, .cls-5, .cls-6, .cls-7, .cls-8 {
        isolation: isolate;
      }

      .cls-2 {
        fill: #23aa18;
        opacity: .81;
      }

      .cls-3 {
        fill: #55aa50;
        opacity: .68;
      }

      .cls-4 {
        fill: #3c871a;
      }

      .cls-4, .cls-7 {
        opacity: .78;
      }

      .cls-5 {
        fill: #07420c;
        opacity: .54;
      }

      .cls-6 {
        fill: #06330d;
        opacity: .49;
      }

      .cls-7 {
        fill: #1a5b13;
      }

      .cls-8 {
        fill: #193507;
        opacity: .46;
      }
    </style>
  </defs>
  <g id="fond-2">
    <path class="cls-2" d="M773.28,316.18c10.73-16.86,22.46,3.43,28.91,19.08,10.43,25.31,7.03,59.24-6.4,95.11-24.96,66.67-84.57,140.01-154.34,177.05-124.16,65.91-386.45,139.82-386.45,139.82l240-25c326.5-305.04,222.01,102.81,245,135l152,239s-190.77-338.61-146.31-458.17c44.45-119.56,61.31-291.24,116.5-355.62,55.18-64.38,427.82-9.21,427.82-9.21,0,0,5.1-41.79-22-45-152-18-759.24-136.56-649-155l-227-14s378.21,71.46,425.73,132.77c47.52,61.31-85.84,148.69-85.84,148.69l-476.89,191.54s444.7-179.28,473.82-179.28,68.98,73.58,68.98,73.58c0,0-38.03-64.32-33.72-85.84,1.53-7.66,5.6-18.87,9.2-24.53h-.01Z"/>
  </g>
  <g id="Calque_24" data-name="Calque 24">
    <path class="cls-3" d="M277.91,459.1s174.69,225.77,571.85,146.67,477.91-293.34,494.39-323-14.66,131.83-176.33,214.24c-255.44,130.19,219.18,263.68,219.18,263.68,0,0-110.41-23.07-146.67,18.13s37.9-13.18-75.81-85.7c-113.71-72.51-92.29-173.04-234.01-56.03-141.73,117.01,11.54,327.95,159.85,349.37,148.32,21.42,245.55-135.13,255.44-161.5s-110.41,186.22-125.25,257.09c-42.85-46.14,24.72-117.01-135.13-77.46-159.85,39.55-128.54,146.67-128.54,146.67,0,0-56.03-412-143.37-454.84-87.34-42.85-277.18-109.96-386.61-87.94-109.43,22.02-183.59,79.7-198.42,92.88-14.83,13.18,113.71-74.16,110.41-95.58-3.3-21.42,29.66-95.58-57.68-93.93s-3.3-52.74-3.3-52.74h0Z"/>
  </g>
  <g id="Calque_25" data-name="Calque 25">
    <path class="cls-8" d="M416,286.25s302,70,394-36,78-140,78-140c0,0-17,293,177,361s279-43,279-43c0,0-191,87-74,258-70-101-181-237-360-237s-90.81,337.07-19,387c105,73,385,17,385,17l-667,230s195-77,203-129,26.11-373-88.94-394-344.06,307-243.06,416,82.06,107,82.06,107c0,0-89.06-105-158.06-125s-152-8-152-8c0,0,268-216,288-287s-102-7-120,82-30,141-30,141c0,0,7-112,6-189s-109-163-109-163l-72-85s93.11,85,156.06,102,265.94-8,294.94-17,165.42-67.89,190-88c33-27,109-157-21-147-55.92,4.3-310,66-528,236,0,0,114-217,37-254s-80,112-80,112l-20-195,172,88Z"/>
  </g>
  <g id="Calque_26" data-name="Calque 26">
    <path class="cls-1" d="M758.06,59.25s86.94,134-43.06,210-477,133-477,133v32s280.11-135,348.06,0,26.06,555.01-66,649,146.94,19,146.94,19c0,0-71-40-45-186s69-330,292-368,423,3,423,3v-89s-193,48-294,60-336.89,78-365.94,51-128.06-204-49.06-241,463,62,484,136,4,57,4,57l96-11s-83-20-147-116,220-42,220-42l18-185s-47,132-221,146-223.89-1-227.94-21,312.94-139,418.94-116,96-29,96-29c0,0-91.7,3.93-173.32,13.91-19.23,2.35-37.9,5.04-54.68,8.09-88,16-227,101-253,59s184-145,235-97,30,46,30,46l45-9s-35,0-54-29-62-73-24-92-73,63-121,80-189.75,49-195.37-21,20.43-61.84,20.43-61.84l-66,10.84Z"/>
  </g>
  <g id="Calque_27" data-name="Calque 27">
    <path class="cls-6" d="M628,36.25s59,119,3,166c-93.89,78.8-194-80-204-101-5.65-11.88-.03-88-.03-88l-113.97-5s151,128,166,219-17,346-198,394-43,235-43,235c0,0,100-163,156-205s281-42,298,113-106.94,366.34-106.94,366.34l222.08-20.34s-92.14-183-85.14-273,218.11-127.08,243.06-122.04,390.94,267.04,390.94,267.04l-65.62-337s170.62,237-127.38,102-438,117-429-45,541,1,541,1l44-302s23,178-84,217-365.75,37-431.37-70,154.37-99,163.37-42,22,145,109,254,134.06,53,134.06,53c0,0-226.06-219-228.06-315s345-252,345-252c0,0-233-89-184-194-102-39,196,379-238,282-8,66-63,185-415,250C345,443.25,719,72.25,911,65.25s-283-29-283-29Z"/>
  </g>
  <g id="Calque_28" data-name="Calque 28">
    <path class="cls-5" d="M247,151.25s258,314,237-103c-5.46-108.42,65.11-.26,68.06-.13s-73.94,14.13-21,103.13,204.94-34,200.44-92,22.5-47,26.5-47-103,333,97,366,365.26-31.69,365.26-31.69c0,0-282.26,36.69-302.26,64.69s-158,61-51,170,395,247,411,250,27,95,27,95c0,0-170.79-145.08-313.98-237.85-62.38-40.41-119.51-70.9-155.02-75.15-117-14-206.51,247.68-42.94,200,198.94-58,313.94-55,313.94-55,0,0-335,29-304,168,30.59,137.14,86,178,86,178l-180-14s130-147,55-171-125.89,151.01-88.94,164-102.06,13-102.06,13c0,0,153-157,147-210s-219-237-192,202-361,67-361,67c0,0,311-18,317-122s-64-189-142-141-53,187-1,204-241-85-241-85L0,906.25s319-9,407-44,365-199.38,372.5-290.19-3.5-306.81-85.5-330.81-363,37-425,285-22-371-22-371"/>
    <path class="cls-7" d="M917,1101.25s103-33,128-130-106.89-308.11-133.94-320.06,191.94,247.06,250.94,278.06,114,51,121,50-72-28-109,49,49.06,123,49.06,123l-306.06-50Z"/>
    <path class="cls-4" d="M539,1113.25s-192-68-194-187,23.06-211.04,23.06-211.04l-35.93,9.04s34.99,110-13.07,188-118.72,134-118.72,134c0,0,73.78-43,93.72-45s19.69,39.34,7.82,48.17-58.8,11.78-58.8,11.78l-20.31-7.11,90.24,64.16s-10-73,18-83,30,57,21,75,187,3,187,3h0Z"/>
  </g>
</svg>