<?xml version="1.0" encoding="UTF-8"?>
<svg id="Calque_1" data-name="Calque 1" xmlns="http://www.w3.org/2000/svg" viewBox="0 0 1001 726.22">
  <defs>
    <style>
      .cls-1 {
        fill: none;
        stroke: #1d1d1b;
        stroke-miterlimit: 10;
      }
    </style>
  </defs>
  <path d="M.5.5v725.22h1000V.5H.5ZM218.31,267.39c-21.71,12.57-113.19,27.08-145.83-63.19-21.97-60.77,25.37-122.62,34.72-129.86,64.58-50,144.44-34.03,172.92,7.64,18.42,26.96,30.56,131.94-61.81,185.42ZM555.11,677.11c-37.3,17.34-265.97,71.53-284.03-95.14-20.21-186.51,109.72-225,109.72-225,59.72-22.22,72.92-23.61,129.86-27.08,56.94-3.47,100,18.75,152.08,65.97,55.68,50.48,40.28,212.5-107.64,281.25ZM853.03,209.75c-1.39,6.25-38.19,34.72-97.22-8.33-59.03-43.06,6.25-83.33,6.25-83.33,56.94-24.31,64.58-6.25,90.97,25,26.39,31.25,1.39,60.42,0,66.67Z"/>
  <path class="cls-1" d="M.5.5v725.22h1000V.5H.5ZM218.31,267.39c-21.71,12.57-113.19,27.08-145.83-63.19-21.97-60.77,25.37-122.62,34.72-129.86,64.58-50,144.44-34.03,172.92,7.64,18.42,26.96,30.56,131.94-61.81,185.42ZM555.11,677.11c-37.3,17.34-265.97,71.53-284.03-95.14-20.21-186.51,109.72-225,109.72-225,59.72-22.22,72.92-23.61,129.86-27.08,56.94-3.47,100,18.75,152.08,65.97,55.68,50.48,40.28,212.5-107.64,281.25ZM853.03,209.75c-1.39,6.25-38.19,34.72-97.22-8.33-59.03-43.06,6.25-83.33,6.25-83.33,56.94-24.31,64.58-6.25,90.97,25,26.39,31.25,1.39,60.42,0,66.67Z"/>
</svg>