<?xml version="1.0" encoding="UTF-8"?>
<svg xmlns="http://www.w3.org/2000/svg" xmlns:xlink="http://www.w3.org/1999/xlink" viewBox="0 0 2107 1713.07">
  <defs>
    <style>
      .cls-1 {
        opacity: .68;
      }

      .cls-2 {
        fill: #ffc200;
        stroke: #ffd400;
      }

      .cls-2, .cls-3 {
        stroke-miterlimit: 10;
      }

      .cls-3 {
        fill: #ffac00;
        stroke: #ffaf00;
      }
    </style>
  </defs>
  <g id="Calque_1">
    <image class="cls-1" width="2100" height="1500" transform="translate(0 208.07)" xlink:href="../../../Sans titre.png"/>
  </g>
  <g id="rond_globules">
    <g id="Calque_18">
      <path class="cls-2" d="M1461,304.07c-10.01-.93-71,17-57,53,20.4,36.29,73,5,80-7,6.24-7.68,31-41-23-46ZM1434,331.07c-16.5-1.5,7-15,7-15,17-8,26.5-5.71,26.5-.5,0,6-19.42,16.78-33.5,15.5Z"/>
      <path class="cls-3" d="M1404.5,347.57s.83-11.52,8-9,0,27,19,27c17,0,24.5-9.64,29-11s13,10-9,14-41,8-47-21Z"/>
      <path class="cls-3" d="M1486.5,315.57c-3.47-.99,5,3.33,0,15.66s-9,20.34-10,20.34-5,4.42,0,3.21,15.67-18.89,15.83-23.55,1.17-13.66-5.83-15.66Z"/>
    </g>
    <g id="Calque_20">
      <path class="cls-2" d="M1009.39,311.24c-5.5-4.27-19.5-1.27-26.5,2.73-10.6,6.06-21,16-24,44s24,21.72,24,21.72c0,0,26-10.72,32-36.72s0-27.45-5.5-31.73ZM1001.89,328.96s-9,22-27.17,26.42c-18.17,4.42,10.22-33.98,10.22-33.98,3.06-3.56,6.94-3.44,13.94-3.44s3,11,3,11Z"/>
      <path class="cls-3" d="M963.5,349.57s-10,29,14,28,0-4-2-4-15,2-12-24Z"/>
      <path class="cls-3" d="M983.12,369.68c-.53-.06-1.07.03-1.56.24-1.16.5-2.58,1.14.93,1.65,5,.72,9,1,14-1,5.29-2.12,7-5,8-8,1.34-4.02,5-7-2-1s-15.21,8.6-19.38,8.11Z"/>
    </g>
    <g id="Calque_21">
      <path class="cls-2" d="M981.5,377.57c-.81.06-22,13-5,26,11,3,32-30,5-26ZM982.31,391.96c-6.19,1.39,0-9.11,0-9.11,1.81-2.72,3.19-1.28,4.19-1.28s2,9-4.19,10.39Z"/>
      <path class="cls-3" d="M973.5,392.57s-3,8,3,9,9.34-2.5,9.34-2.5c0,0,2.66-6.39-1.34-2.95s-9,2.45-9,1.45.26-4.07-2-5Z"/>
    </g>
    <g id="Calque_22">
      <path class="cls-2" d="M1576.83,494.57c-11.62,3.17-52,6-82,63s32,68.44,41,63.72,50.78-10.04,71.89-62.88c21.11-52.84-19.89-66.84-30.89-63.84ZM1593.83,529.57c-1,16-54,51-62,32-9-42,47-57,47-57h.89c15.89-1,15.11,9,14.11,25Z"/>
      <path class="cls-3" d="M1524.5,547.57s7-21,18-24c-9,16-16,29-8,41,1,2,9.04,6.44,29.02-4.78s-5,26.22-19.51,25.5-25.51-16.72-19.51-37.72Z"/>
      <path class="cls-3" d="M1496.5,566.57s-4,48,38,40,32-9,35-10-23.1,25.26-36,25-31.93,4.23-45.46-26.38c.46-15.62,6.46-27.62,8.46-28.62Z"/>
    </g>
  </g>
</svg>