<?xml version="1.0" encoding="UTF-8"?>
<svg id="rond_globules" xmlns="http://www.w3.org/2000/svg" viewBox="0 0 2892.4 2178">
  <defs>
    <style>
      .cls-1 {
        fill: #ffc200;
        stroke: #ffd400;
      }

      .cls-1, .cls-2 {
        stroke-miterlimit: 10;
      }

      .cls-2 {
        fill: #ffac00;
        stroke: #ffaf00;
      }
    </style>
  </defs>
  <g id="Calque_20">
    <path class="cls-1" d="M1853.71,318.88c-47.16-36.66-167.22-10.93-227.25,23.37-90.88,51.93-180.08,137.21-205.81,377.32-25.73,240.11,205.81,186.28,205.81,186.28,0,0,222.96-91.95,274.41-314.91,51.45-222.96,0-235.4-47.16-272.06ZM1789.39,470.88s-77.18,188.66-232.97,226.59c-155.79,37.93,87.66-291.42,87.66-291.42,26.2-30.53,59.55-29.5,119.58-29.5s25.73,94.33,25.73,94.33Z"/>
    <path class="cls-2" d="M1460.19,647.62s-85.75,248.69,120.06,240.11c205.81-8.58,0-34.3-17.15-34.3s-128.63,17.15-102.91-205.81Z"/>
    <path class="cls-2" d="M1597.45,826.09c-4.54-.53-9.14.23-13.34,2.05-9.92,4.3-22.1,9.79,8.01,14.14,42.88,6.19,77.18,8.58,120.06-8.58,45.41-18.16,60.03-42.88,68.6-68.6,11.51-34.52,42.88-60.03-17.15-8.58-58.39,50.05-130.44,73.77-166.18,69.56Z"/>
    <path class="cls-2" d="M1532.17,700.5s149.01,24.54,209.83-40.06c87.5-92.94,74.5-243.94,57.5-261.94s-21.42-19.66-21.42-19.66c0,0,26.42,58.66-7.58,130.66s-126.67,172.01-238.33,191Z"/>
  </g>
</svg>