<?xml version="1.0" encoding="UTF-8"?>
<svg id="rond_globules" xmlns="http://www.w3.org/2000/svg" viewBox="0 0 2892.4 2178">
  <defs>
    <style>
      .cls-1 {
        fill: #ffc200;
        stroke: #ffd400;
      }

      .cls-1, .cls-2 {
        stroke-miterlimit: 10;
      }

      .cls-2 {
        fill: #ffac00;
        stroke: #ffaf00;
      }
    </style>
  </defs>
  <g id="Calque_21">
    <path class="cls-1" d="M1640.9,295.92c-16.62,1.27-451.94,267.06-102.71,534.11,225.97,61.63,657.37-616.28,102.71-534.11ZM1657.53,591.51c-127.17,28.53,0-187.17,0-187.17,37.17-55.92,65.54-26.25,86.08-26.25s41.09,184.88-86.08,213.42Z"/>
    <path class="cls-2" d="M1418.5,625.5s17.3,167.33,141,185c98,14,174-77,174-77,0,0,96.17-129.79,14-59-82.17,70.79-209.35,33.41-229.86,32.28-46.71-2.57-60.45-57.42-99.14-81.28Z"/>
    <path class="cls-2" d="M1696.17,370.23s-142.67,24.27-136.67,129.27,64.67,94.61,64.67,94.61c0,0-27.45-36.72-18.56-68.66s11.89-64.94,90.56-155.22Z"/>
  </g>
</svg>