<?xml version="1.0" encoding="UTF-8"?>
<svg id="fond_-_copie" data-name="fond - copie" xmlns="http://www.w3.org/2000/svg" viewBox="0 0 2892.4 2166.25">
  <defs>
    <style>
      .cls-1 {
        fill: none;
      }

      .cls-2 {
        fill: #f4f4f4;
        opacity: .78;
      }

      .cls-3 {
        fill: #205b13;
      }
    </style>
  </defs>
  <g id="Calque_28_-_copie" data-name="Calque 28 - copie">
    <g>
      <path class="cls-1" d="M1656.19,548.77c-3.23,1.7-6.51,3.21-9.84,4.55-1.86,1.36-3.78,2.67-5.81,3.87-1.47,1.35-2.98,2.64-4.51,3.9.14.32.29.65.43.96,9.36-6.58,18.48-11.8,27.14-16.01-2.43.99-4.9,1.91-7.42,2.73Z"/>
      <path class="cls-1" d="M1671.89,542.24c6.56-2.82,12.79-5.07,18.58-6.91.44-.93.86-1.86,1.29-2.79-2.37.71-4.75,1.35-7.16,1.94-4.06,2.89-8.29,5.49-12.72,7.76Z"/>
      <path class="cls-1" d="M1546.44,671.9c-.04,2.39-.16,4.79-.37,7.18,1.02-2.48,2.1-5,3.29-7.57l-2.92.39Z"/>
      <path class="cls-1" d="M1576.54,621.57c-.52,1.01-1.06,2.01-1.61,3-.05.08-.1.16-.14.25-.51.92-1.04,1.82-1.58,2.72-.05.09-.11.17-.16.26-.54.9-1.1,1.79-1.67,2.67-.04.07-.09.13-.13.2-.59.9-1.19,1.79-1.81,2.68-.03.04-.05.08-.08.11-.64.91-1.29,1.81-1.96,2.71,0,.01-.02.02-.03.04-2.07,2.77-4.3,5.44-6.67,8.04,0,0,0,0,0,0,1.4-.63,2.81-1.26,4.21-1.91,4.69-7.89,9.47-15.2,14.3-22-.86.34-1.75.76-2.66,1.24,0,0,0,0,0,0Z"/>
      <path class="cls-1" d="M1791.24,556.86c-2.9-2.65-5.8-5.33-8.75-7.94,0,.08.01.17.02.25,3.32,3.57,6.41,7.58,9.13,12.07.8-.18,1.57-.35,2.35-.52-.85-1.34-1.76-2.63-2.75-3.86Z"/>
      <path class="cls-1" d="M1689.47,784.45c1.47-.71,2.92-1.46,4.36-2.22-.24-.29-.48-.57-.74-.84-5.76,3.04-11.31,5.64-16.54,7.87.09.39.19.78.28,1.17,4.19-2.04,8.44-3.97,12.64-5.99Z"/>
      <path class="cls-1" d="M1606.67,803.26s0-.02,0-.03c-6.87-1.55-14.19-3.86-21.43-7.06-.02.31-.04.64-.06.96,6.51,2.1,13.03,4.24,19.58,6.29.63-.06,1.27-.11,1.9-.15Z"/>
      <path class="cls-1" d="M1710.16,773.65c.04-.8.08-1.62.12-2.45-1.92,1.27-3.82,2.49-5.72,3.65.15.45.3.9.45,1.35,1.7-.89,3.41-1.75,5.15-2.56Z"/>
      <path class="cls-1" d="M1794.13,565.71c1.86,3.61,3.49,7.49,4.85,11.66.46-.23.91-.45,1.37-.68-.25-1.06-.5-2.12-.78-3.17-.11-.42-.24-.83-.36-1.24-1.1-2.22-2.14-4.47-3.13-6.76-.65.06-1.29.12-1.94.19Z"/>
      <path class="cls-1" d="M1802.31,591.84c.58,4.01.92,8.23,1.01,12.68.33.62.68,1.24,1.02,1.86-.02-2.84-.09-5.68-.21-8.53-.05-1.12-.09-2.25-.12-3.38-.19-.85-.38-1.71-.55-2.57-.38-.03-.75-.06-1.14-.06Z"/>
      <path class="cls-1" d="M1700.98,663.86c-6.39,4.84-13.28,8.94-21.16,11.87-.22.08-.44.13-.66.2.11.73.21,1.45.32,2.18,9.12-3.82,18.67-9.01,27.89-14.98-.08-.68-.17-1.35-.25-2.03-2.04.92-4.09,1.83-6.13,2.76Z"/>
      <path class="cls-1" d="M1675.11,676.63c.16,1.08.36,2.08.58,3,.33-.12.65-.25.98-.37,0-.91,0-1.83,0-2.74-.51.07-1.03.11-1.55.12Z"/>
      <path class="cls-1" d="M1794.18,656.69c-.37,1.08-.74,2.17-1.13,3.27.19.02.38.03.57.05.29-1.03.56-2.06.83-3.09-.09-.08-.18-.16-.27-.23Z"/>
      <path class="cls-1" d="M1788.71,674.68c-.35-.28-.71-.58-1.05-.85-1.51,3.6-3.06,7.09-4.64,10.47.19.28.38.56.57.84,1.73-3.48,3.44-6.97,5.12-10.47Z"/>
      <path class="cls-1" d="M1783.13,686.08c-.15-.35-.3-.7-.44-1.04-1.82,3.85-3.68,7.57-5.6,11.15.39-.08.76-.16,1.14-.24,1.64-3.29,3.27-6.58,4.9-9.87Z"/>
      <path class="cls-1" d="M1761.8,573.62c.23.94.43,1.89.61,2.84-.08-2.1-.21-4.12-.44-6.01-.4.08-.81.16-1.21.24.43.94.79,1.92,1.04,2.94Z"/>
      <path class="cls-1" d="M1773.86,704.8c.33-.67.66-1.34.99-2.01-.6.21-1.19.41-1.79.62-1.81,3.12-3.65,6.13-5.52,9.04,2.07-2.6,4.18-5.15,6.33-7.65Z"/>
      <path class="cls-1" d="M1728.65,554.25c3.66,1.21,7.57,1.44,11.31,2.35,3.62.88,7.12,2.23,10.26,4.14,4.02,1.68,7.54,4.66,9.72,8.38.59-.15,1.19-.31,1.78-.47-2.15-14.1-9.49-21.74-29.93-20.4h-1.87s-5.93,1.65-14.9,5.24c.06.64.14,1.28.24,1.93,4.25-1.97,9.17-2.56,13.38-1.16Z"/>
      <path class="cls-3" d="M1641.02,802.75c.55-.25,1.13-.51,1.75-.76,5.83-21.64,10.75-45.08,12.99-68.02-5.53-6.92-12.4-13.29-19.68-17.1-4.39,20.02-7.46,40.2-10.11,59.22-1.38,9.87-2.11,18.83-2.37,27.01,3.9.12,7.76.39,11.57.82,1.93-.44,3.88-.83,5.85-1.16Z"/>
      <path class="cls-3" d="M1674.14,778.34c.74,3.62,1.56,7.27,2.41,10.94,5.23-2.24,10.78-4.83,16.54-7.87-1.44-1.51-3.26-2.74-5.5-3.66-4.74-1.93-9.25-1.52-13.46.6Z"/>
      <path class="cls-3" d="M1585.24,796.16c7.24,3.2,14.57,5.52,21.43,7.06,6.13-26.42,10.89-57.6,14.01-89.93-16.24,1.52-31.34,22.09-35.44,82.86Z"/>
      <path class="cls-3" d="M1791.81,580.78c2.43-1.12,4.82-2.25,7.17-3.4-1.35-4.17-2.99-8.05-4.85-11.66-2.54.27-5.1.55-7.67.87,1.46,4.54,3.26,9.29,5.35,14.19Z"/>
      <path class="cls-3" d="M1703.66,772.17c.3.9.6,1.79.9,2.69,1.89-1.16,3.8-2.38,5.72-3.65.34-7.56.61-16.23.74-25.62-4.71,7.81-7.43,16.63-7.35,26.59Z"/>
      <path class="cls-3" d="M1751.18,632.18c-7.6,10.98-12.21,23.04-14.33,35.58,9.18-3.23,19.39-5.94,30.63-7.29-8.26-13.08-14.27-23.4-16.3-28.28Z"/>
      <path class="cls-3" d="M1784.23,599.28c-5.53,3.93-11.92,9.55-19.46,17.16,8.35,2.42,17.09,4.21,25.96,5.44-2.62-7.89-4.74-15.42-6.5-22.6Z"/>
      <path class="cls-3" d="M1763.65,591.44c0,.28-.01.56-.02.84,6.05-2.19,11.91-4.47,17.55-6.84-1.23-6.26-2.2-12.17-3.02-17.73-5.34.78-10.75,1.7-16.18,2.73.22,1.89.36,3.91.44,6.01.94,4.93,1.23,9.98,1.24,14.99Z"/>
      <path class="cls-3" d="M1716.82,676.07c2.06-.96,4.2-1.94,6.41-2.91-2.96-6.05-6.04-10.97-9.23-14.51-.41.29-.83.58-1.25.87,1.24,5.67,2.6,11.21,4.07,16.54Z"/>
      <path class="cls-3" d="M1791.64,561.24c-2.72-4.5-5.81-8.51-9.13-12.07.45,4.2,1.39,8.74,2.77,13.55,2.17-.52,4.29-1.01,6.36-1.47Z"/>
      <path class="cls-3" d="M1597.48,639.25c-17.13,27.43-31.78,60.51-39.08,91.3,18.95-12.72,42.62-30.6,64.88-50.18.98-16.16,1.54-32.3,1.64-47.98-3.89-2.8-8-5.2-12.25-7.22-4.71,3.98-9.76,8.66-15.18,14.09Z"/>
      <path class="cls-3" d="M1676.65,682.74c0-1.16.01-2.32.01-3.48-.33.13-.65.25-.98.37.28,1.16.6,2.19.96,3.11Z"/>
      <path class="cls-3" d="M1773.44,542.6c-7.54-4.27-15.52-7.79-23.2-11.76-4.59-2.38-9.17-3.75-13.83-4.54-3.74-.1-7.47.13-11.04.72-3.37,3.09-6.26,6.86-8.7,11.18-1.51,4.58-2.18,9.64-1.63,15.28,8.97-3.58,14.9-5.24,14.9-5.24h1.87c20.43-1.33,27.78,6.3,29.93,20.4,5.47-1.43,10.84-2.82,15.97-4.1-.78-5.54-1.41-10.72-2-15.5-.29-2.31-1.08-4.46-2.27-6.46Z"/>
      <path class="cls-3" d="M1579.2,620.32c-4.83,6.8-9.61,14.11-14.3,22,8.9-4.08,17.79-8.32,26.39-12.65.52-9.85-4.71-12.28-12.09-9.36Z"/>
      <path class="cls-3" d="M1663.62,546.04c-8.67,4.21-17.78,9.44-27.14,16.01.69,1.51,1.37,2.98,2.05,4.4,2.95-.7,5.19-1.34,6.54-1.88,6.27-2.48,24.13-11.83,41.78-21.96,1.26-2.41,2.47-4.84,3.63-7.27-5.79,1.84-12.02,4.09-18.58,6.91-2.69,1.38-5.45,2.64-8.27,3.79Z"/>
      <path class="cls-3" d="M1541.36,702.77c-.54,3.89-2.64,8.95-4.62,13.21,17.36-20.68,33.83-41.89,43.95-58.76-3.18,3.6-6.46,7.4-9.84,11.44l-21.48,2.85c-1.18,2.57-2.27,5.09-3.29,7.57-.68,7.89-2.24,15.79-4.72,23.68Z"/>
      <path class="cls-3" d="M1681.15,688.1c5.68,2.65,14.95-2.01,27.86-8.29-.46-5.61-1.01-11.18-1.65-16.67-9.22,5.98-18.76,11.16-27.89,14.98.5,3.28,1.05,6.6,1.67,9.98Z"/>
      <path class="cls-3" d="M1796.66,647.34c.42-2.11.8-4.23,1.19-6.34-2.42-5.88-4.57-11.61-6.46-17.16-9.92-1.89-19.83-3.44-29.45-4.48-.51.53-1.02,1.06-1.54,1.61,10.85,10.26,22.93,20.54,35.39,30.48.31-1.36.6-2.73.88-4.1Z"/>
      <path class="cls-3" d="M1755.48,626.48c-1,1.22-1.96,2.46-2.88,3.72,3.85,3.5,10.75,14.58,18.48,29.88,6.94-.64,14.28-.73,21.98-.12.39-1.1.76-2.19,1.13-3.27-2.7-2.3-5.39-4.57-8.05-6.77-10.72-8.86-21.09-16.86-30.65-23.44Z"/>
      <path class="cls-3" d="M1773.29,664.55c2.59,5.28,5.24,10.98,7.88,16.99.61.91,1.23,1.84,1.85,2.77,1.59-3.39,3.14-6.88,4.64-10.47-6.69-5.36-11.26-8.67-12.8-9.07-.41-.11-.94-.17-1.57-.21Z"/>
      <path class="cls-3" d="M1749.34,736.81c.72-.83,1.43-1.68,2.15-2.53,5.2-7.57,10.5-14.86,16.04-21.82,1.87-2.91,3.71-5.92,5.52-9.04-11.23,3.97-22.58,8.9-32.75,14.99,1.51,5.37,3.33,10.67,5.45,15.88,1.15.89,2.36,1.72,3.59,2.53Z"/>
      <path class="cls-3" d="M1770.1,664.58c-7.06.43-19.79,2.92-33.89,7.64-1.37,11.24-.81,22.8,1.31,34.25,14.72-4.44,27.94-7.77,39.57-10.28,1.91-3.58,3.78-7.31,5.6-11.15-.5-1.17-1.01-2.35-1.51-3.49-3.94-5.93-7.67-11.63-11.08-16.95Z"/>
      <path class="cls-3" d="M1724.77,676.44c-2.33.95-4.67,1.96-7,3.02,3.21,11.16,6.83,21.32,10.64,29.83,2.5-.8,4.96-1.56,7.38-2.3-3.46-11.62-7.14-22.02-11.02-30.55Z"/>
      <path class="cls-3" d="M1734.89,721.82c2.5,4.09,5.01,7.36,7.49,9.64-1.03-4.23-2.09-8.37-3.18-12.4-1.46.9-2.9,1.81-4.31,2.76Z"/>
      <path class="cls-3" d="M1675.67,720.59c.06-2.63.15-5.41.24-8.31-1.31,2.13-2.45,4.34-3.4,6.62.98.65,2.03,1.22,3.16,1.69Z"/>
      <path class="cls-3" d="M1803.32,604.52c-.08-4.44-.43-8.66-1.01-12.68-1.61,0-3.31.23-5.12.73,1.91,3.93,3.97,7.92,6.13,11.95Z"/>
      <path class="cls-3" d="M1683.96,702.02c1.44,6.57,3.05,13.25,4.79,19.98,3.45-.43,7.26-1.39,11.46-2.95,3.61-1.34,7.15-2.62,10.62-3.85-.26-10.34-.74-20.98-1.52-31.55-9.49,5.06-18.38,11.17-25.35,18.37Z"/>
      <path class="cls-3" d="M1782.68,685.03c.11-.24.23-.49.34-.73-.62-.92-1.24-1.85-1.85-2.77.5,1.15,1.01,2.33,1.51,3.49Z"/>
      <path class="cls-2" d="M1782.68,685.03c.11-.24.23-.49.34-.73-.62-.92-1.24-1.85-1.85-2.77.5,1.15,1.01,2.33,1.51,3.49Z"/>
      <path class="cls-3" d="M1797.2,592.57c1.81-.5,3.5-.72,5.12-.73-.75-5.17-1.88-9.98-3.33-14.47-2.35,1.15-4.74,2.29-7.17,3.4-2.08-4.9-3.88-9.65-5.35-14.19,2.57-.32,5.13-.61,7.67-.87-.79-1.54-1.62-3.03-2.49-4.47-2.06.46-4.19.96-6.36,1.47-1.37-4.81-2.32-9.35-2.77-13.55-.53-.57-1.07-1.1-1.61-1.64-.53-.46-1.06-.9-1.59-1.35-1.92-1.26-3.88-2.44-5.87-3.57,1.19,2,1.98,4.16,2.27,6.46.59,4.78,1.22,9.95,2,15.5-5.14,1.28-10.5,2.66-15.97,4.1.09.59.17,1.18.24,1.79,5.44-1.03,10.84-1.95,16.18-2.73.82,5.56,1.79,11.48,3.02,17.73-5.65,2.37-11.5,4.65-17.55,6.84-.11,2.73-.79,5.24-1.89,7.46-.06,1.06-.13,2.11-.19,3.19-.91,15.11-22.24,37.96-47.55,55.71,3.18,3.54,6.26,8.46,9.23,14.51-2.21.97-4.35,1.94-6.41,2.91-1.47-5.33-2.82-10.88-4.07-16.54-1.78,1.23-3.58,2.44-5.39,3.61.64,5.49,1.2,11.06,1.65,16.67-12.92,6.28-22.19,10.94-27.86,8.29-.62-3.38-1.17-6.7-1.67-9.98-.94.39-1.88.77-2.81,1.14,0,1.16,0,2.33-.01,3.48-.37-.92-.69-1.95-.96-3.11-20.8,7.93-38.81,8.1-44.81-6.69-14.72-71.31,53.06-107.03,84.16-119.46-.55-5.64.12-10.71,1.63-15.28,2.45-4.33,5.34-8.09,8.7-11.18,3.57-.59,7.3-.81,11.04-.72-1.84-.31-3.69-.54-5.55-.7-1.93.1-3.67.36-5.14.77-7.2,2.04-19.65,4.02-35.25,8.96-1.16,2.44-2.36,4.86-3.63,7.27-17.65,10.13-35.51,19.47-41.78,21.96-1.36.54-3.6,1.18-6.54,1.88-.68-1.41-1.36-2.89-2.05-4.4-18.74,13.17-38.43,31.74-57.27,58.27,7.38-2.92,12.61-.49,12.09,9.36-8.59,4.32-17.49,8.56-26.39,12.65-4.07,6.85-8.08,14.13-12,21.87-1.26,2.48-2.43,4.92-3.54,7.32l21.48-2.85c3.39-4.04,6.67-7.85,9.84-11.44-10.12,16.87-26.58,38.07-43.95,58.76-.2.43-.4.85-.59,1.26-3.81,42.64,22.03,66.96,49.09,78.92,4.11-60.78,19.2-81.34,35.44-82.86-3.12,32.33-7.89,63.51-14.01,89.93.04,0,.08.02.12.03,4.17-.31,8.4-.4,12.7-.24,1.38,0,2.74.04,4.11.08.25-8.18.99-17.15,2.37-27.01,2.65-19.02,5.72-39.2,10.11-59.22,7.28,3.81,14.15,10.17,19.68,17.1-2.24,22.95-7.16,46.39-12.99,68.02,7.17-2.99,19.24-6.49,33.79-12.71-.86-3.66-1.67-7.32-2.41-10.94,4.21-2.12,8.72-2.53,13.46-.6,2.24.91,4.05,2.15,5.5,3.66,3.74-1.98,7.57-4.15,11.46-6.54-.3-.9-.6-1.78-.9-2.69-.08-9.95,2.64-18.78,7.35-26.59-.12,9.39-.39,18.05-.74,25.62,4.72-3.13,9.5-6.61,14.28-10.46,2.5-3.11,4.99-6.05,7.39-8.62,5.02-5.38,10.74-10.22,16.79-14.62.21-.23.41-.46.62-.7-1.23-.81-2.44-1.64-3.59-2.53-2.12-5.2-3.95-10.51-5.45-15.88,10.17-6.09,21.52-11.02,32.75-14.99,1.36-2.35,2.71-4.75,4.03-7.23-11.63,2.51-24.85,5.85-39.57,10.28-2.12-11.45-2.68-23.01-1.31-34.25,14.1-4.71,26.83-7.21,33.89-7.64,3.41,5.32,7.13,11.03,11.08,16.95-2.64-6-5.29-11.71-7.88-16.99.63.04,1.16.11,1.57.21,1.55.4,6.12,3.7,12.8,9.07,1.07-2.55,2.12-5.14,3.15-7.8.79-2.05,1.53-4.07,2.24-6.07-7.71-.61-15.04-.52-21.98.12-7.73-15.31-14.62-26.39-18.48-29.88.92-1.25,1.88-2.49,2.88-3.72,9.57,6.58,19.93,14.57,30.65,23.44,2.66,2.2,5.35,4.47,8.05,6.77.48-1.41.92-2.8,1.36-4.19.08-.35.16-.71.25-1.06-12.46-9.94-24.54-20.22-35.39-30.48.52-.55,1.03-1.08,1.54-1.61,9.62,1.05,19.54,2.6,29.45,4.48,1.89,5.55,4.04,11.28,6.46,17.16.9-4.97,1.81-9.94,3.27-14.79.36-1.21.76-2.4,1.17-3.58.82-6.4,1.15-12.44,1.04-18.12-2.16-4.03-4.21-8.02-6.13-11.95ZM1623.27,680.37c-22.26,19.58-45.93,37.46-64.88,50.18,7.3-30.78,21.95-63.87,39.08-91.3,5.42-5.43,10.47-10.11,15.18-14.09,4.25,2.02,8.36,4.42,12.25,7.22-.1,15.68-.66,31.83-1.64,47.98ZM1675.67,720.59c-1.13-.47-2.18-1.04-3.16-1.69.95-2.28,2.09-4.49,3.4-6.62-.09,2.9-.18,5.69-.24,8.31ZM1700.21,719.05c-4.2,1.56-8.01,2.52-11.46,2.95-1.74-6.73-3.35-13.41-4.79-19.98,6.98-7.2,15.87-13.3,25.35-18.37.78,10.57,1.26,21.22,1.52,31.55-3.48,1.23-7.02,2.5-10.62,3.85ZM1739.2,719.06c1.08,4.04,2.14,8.18,3.18,12.4-2.47-2.28-4.99-5.55-7.49-9.64,1.41-.94,2.85-1.86,4.31-2.76ZM1735.79,706.99c-2.42.74-4.88,1.5-7.38,2.3-3.81-8.51-7.44-18.67-10.64-29.83,2.33-1.07,4.66-2.07,7-3.02,3.88,8.53,7.56,18.93,11.02,30.55ZM1767.48,660.46c-11.24,1.35-21.44,4.06-30.63,7.29,2.12-12.53,6.73-24.59,14.33-35.58,2.03,4.88,8.03,15.2,16.3,28.28ZM1764.77,616.44c7.53-7.61,13.92-13.23,19.46-17.16,1.76,7.17,3.88,14.71,6.5,22.6-8.87-1.22-17.61-3.01-25.96-5.44Z"/>
      <path class="cls-2" d="M1797.2,592.57c1.81-.5,3.5-.72,5.12-.73-.75-5.17-1.88-9.98-3.33-14.47-2.35,1.15-4.74,2.29-7.17,3.4-2.08-4.9-3.88-9.65-5.35-14.19,2.57-.32,5.13-.61,7.67-.87-.79-1.54-1.62-3.03-2.49-4.47-2.06.46-4.19.96-6.36,1.47-1.37-4.81-2.32-9.35-2.77-13.55-.53-.57-1.07-1.1-1.61-1.64-.53-.46-1.06-.9-1.59-1.35-1.92-1.26-3.88-2.44-5.87-3.57,1.19,2,1.98,4.16,2.27,6.46.59,4.78,1.22,9.95,2,15.5-5.14,1.28-10.5,2.66-15.97,4.1.09.59.17,1.18.24,1.79,5.44-1.03,10.84-1.95,16.18-2.73.82,5.56,1.79,11.48,3.02,17.73-5.65,2.37-11.5,4.65-17.55,6.84-.11,2.73-.79,5.24-1.89,7.46-.06,1.06-.13,2.11-.19,3.19-.91,15.11-22.24,37.96-47.55,55.71,3.18,3.54,6.26,8.46,9.23,14.51-2.21.97-4.35,1.94-6.41,2.91-1.47-5.33-2.82-10.88-4.07-16.54-1.78,1.23-3.58,2.44-5.39,3.61.64,5.49,1.2,11.06,1.65,16.67-12.92,6.28-22.19,10.94-27.86,8.29-.62-3.38-1.17-6.7-1.67-9.98-.94.39-1.88.77-2.81,1.14,0,1.16,0,2.33-.01,3.48-.37-.92-.69-1.95-.96-3.11-20.8,7.93-38.81,8.1-44.81-6.69-14.72-71.31,53.06-107.03,84.16-119.46-.55-5.64.12-10.71,1.63-15.28,2.45-4.33,5.34-8.09,8.7-11.18,3.57-.59,7.3-.81,11.04-.72-1.84-.31-3.69-.54-5.55-.7-1.93.1-3.67.36-5.14.77-7.2,2.04-19.65,4.02-35.25,8.96-1.16,2.44-2.36,4.86-3.63,7.27-17.65,10.13-35.51,19.47-41.78,21.96-1.36.54-3.6,1.18-6.54,1.88-.68-1.41-1.36-2.89-2.05-4.4-18.74,13.17-38.43,31.74-57.27,58.27,7.38-2.92,12.61-.49,12.09,9.36-8.59,4.32-17.49,8.56-26.39,12.65-4.07,6.85-8.08,14.13-12,21.87-1.26,2.48-2.43,4.92-3.54,7.32l21.48-2.85c3.39-4.04,6.67-7.85,9.84-11.44-10.12,16.87-26.58,38.07-43.95,58.76-.2.43-.4.85-.59,1.26-3.81,42.64,22.03,66.96,49.09,78.92,4.11-60.78,19.2-81.34,35.44-82.86-3.12,32.33-7.89,63.51-14.01,89.93.04,0,.08.02.12.03,4.17-.31,8.4-.4,12.7-.24,1.38,0,2.74.04,4.11.08.25-8.18.99-17.15,2.37-27.01,2.65-19.02,5.72-39.2,10.11-59.22,7.28,3.81,14.15,10.17,19.68,17.1-2.24,22.95-7.16,46.39-12.99,68.02,7.17-2.99,19.24-6.49,33.79-12.71-.86-3.66-1.67-7.32-2.41-10.94,4.21-2.12,8.72-2.53,13.46-.6,2.24.91,4.05,2.15,5.5,3.66,3.74-1.98,7.57-4.15,11.46-6.54-.3-.9-.6-1.78-.9-2.69-.08-9.95,2.64-18.78,7.35-26.59-.12,9.39-.39,18.05-.74,25.62,4.72-3.13,9.5-6.61,14.28-10.46,2.5-3.11,4.99-6.05,7.39-8.62,5.02-5.38,10.74-10.22,16.79-14.62.21-.23.41-.46.62-.7-1.23-.81-2.44-1.64-3.59-2.53-2.12-5.2-3.95-10.51-5.45-15.88,10.17-6.09,21.52-11.02,32.75-14.99,1.36-2.35,2.71-4.75,4.03-7.23-11.63,2.51-24.85,5.85-39.57,10.28-2.12-11.45-2.68-23.01-1.31-34.25,14.1-4.71,26.83-7.21,33.89-7.64,3.41,5.32,7.13,11.03,11.08,16.95-2.64-6-5.29-11.71-7.88-16.99.63.04,1.16.11,1.57.21,1.55.4,6.12,3.7,12.8,9.07,1.07-2.55,2.12-5.14,3.15-7.8.79-2.05,1.53-4.07,2.24-6.07-7.71-.61-15.04-.52-21.98.12-7.73-15.31-14.62-26.39-18.48-29.88.92-1.25,1.88-2.49,2.88-3.72,9.57,6.58,19.93,14.57,30.65,23.44,2.66,2.2,5.35,4.47,8.05,6.77.48-1.41.92-2.8,1.36-4.19.08-.35.16-.71.25-1.06-12.46-9.94-24.54-20.22-35.39-30.48.52-.55,1.03-1.08,1.54-1.61,9.62,1.05,19.54,2.6,29.45,4.48,1.89,5.55,4.04,11.28,6.46,17.16.9-4.97,1.81-9.94,3.27-14.79.36-1.21.76-2.4,1.17-3.58.82-6.4,1.15-12.44,1.04-18.12-2.16-4.03-4.21-8.02-6.13-11.95ZM1623.27,680.37c-22.26,19.58-45.93,37.46-64.88,50.18,7.3-30.78,21.95-63.87,39.08-91.3,5.42-5.43,10.47-10.11,15.18-14.09,4.25,2.02,8.36,4.42,12.25,7.22-.1,15.68-.66,31.83-1.64,47.98ZM1675.67,720.59c-1.13-.47-2.18-1.04-3.16-1.69.95-2.28,2.09-4.49,3.4-6.62-.09,2.9-.18,5.69-.24,8.31ZM1700.21,719.05c-4.2,1.56-8.01,2.52-11.46,2.95-1.74-6.73-3.35-13.41-4.79-19.98,6.98-7.2,15.87-13.3,25.35-18.37.78,10.57,1.26,21.22,1.52,31.55-3.48,1.23-7.02,2.5-10.62,3.85ZM1739.2,719.06c1.08,4.04,2.14,8.18,3.18,12.4-2.47-2.28-4.99-5.55-7.49-9.64,1.41-.94,2.85-1.86,4.31-2.76ZM1735.79,706.99c-2.42.74-4.88,1.5-7.38,2.3-3.81-8.51-7.44-18.67-10.64-29.83,2.33-1.07,4.66-2.07,7-3.02,3.88,8.53,7.56,18.93,11.02,30.55ZM1767.48,660.46c-11.24,1.35-21.44,4.06-30.63,7.29,2.12-12.53,6.73-24.59,14.33-35.58,2.03,4.88,8.03,15.2,16.3,28.28ZM1764.77,616.44c7.53-7.61,13.92-13.23,19.46-17.16,1.76,7.17,3.88,14.71,6.5,22.6-8.87-1.22-17.61-3.01-25.96-5.44Z"/>
    </g>
  </g>
</svg>