<?xml version="1.0" encoding="UTF-8"?>
<svg id="fond" xmlns="http://www.w3.org/2000/svg" viewBox="0 0 2892.4 2093">
  <defs>
    <style>
      .cls-1 {
        fill: none;
      }

      .cls-2 {
        fill: #f4f4f4;
        opacity: .78;
      }

      .cls-3 {
        fill: #205b13;
      }
    </style>
  </defs>
  <g id="Calque_28" data-name="Calque 28">
    <g>
      <path class="cls-1" d="M1785.17,447.44c-3.31,6.63-7.23,12.87-10.82,19.34-.77,1.39-1.49,2.78-2.19,4.16.24-.05.49-.11.73-.16,7.26-10.6,12.89-22.18,17.19-34.13-1.48,3.62-3.12,7.21-4.91,10.79Z"/>
      <path class="cls-1" d="M1796.23,320.06c-.62-1.97-1.27-3.77-1.95-5.36-.33.05-.65.11-.98.17,1.15,1.67,2.12,3.41,2.92,5.19Z"/>
      <path class="cls-1" d="M1800.38,349.23c.31.01.62.03.94.04-.29-3.74-.68-7.32-1.14-10.7.2,3.52.21,7.09.21,10.66Z"/>
      <path class="cls-1" d="M1654.12,439.05c.2-.45.44-.88.68-1.3,1.58-7.06,3.18-14.11,5.04-21.08-3.33,8.71-6.39,17.54-8.9,26.19.28.64.57,1.27.86,1.9.69-1.9,1.45-3.81,2.32-5.72Z"/>
      <path class="cls-3" d="M1476.75,457c-.02.07-.03.14-.05.22,1.25-.55,2.65-1.17,4.2-1.85l-2.86-3.69c-.45,1.76-.89,3.53-1.3,5.32Z"/>
      <path class="cls-3" d="M1600.57,721.7c3.59,4.62,6.5,8.52,8.84,11.8,14.8-29.23,25.87-78.25,31.74-130.39-21.66,1.74-41.49,29.63-40.58,118.58Z"/>
      <path class="cls-3" d="M1632.23,519.03c-5.24,3.8-10.85,8.26-16.87,13.44-19.04,26.17-35.32,57.73-43.43,87.1,21.05-12.14,47.36-29.2,72.1-47.87,1.09-15.42,1.71-30.82,1.82-45.78-4.32-2.67-8.89-4.96-13.62-6.89Z"/>
      <path class="cls-3" d="M1472.51,637.78c1.52,1.99,3.08,3.95,4.57,5.97,1.02,1.38,2.03,2.78,3.02,4.19,9.87-1.25,19.36-2.64,28.05-4.2,8.74-28.67,3.93-60.23.9-74.44l-9.96,1.14c-14.15,21.2-27.11,43.17-33.36,54.01,1.92,4.18,4,8.37,6.23,12.58.29.41.51.71.54.77Z"/>
      <path class="cls-3" d="M1702.24,610.08c.07-2.51.16-5.16.27-7.93-1.45,2.03-2.73,4.14-3.78,6.31,1.09.62,2.26,1.17,3.51,1.62Z"/>
      <path class="cls-3" d="M1658.25,606.52c-4.88,19.1-8.29,38.35-11.24,56.5-4.71,28.98-2.82,50.06,1.38,65.08,1.84-2.33,3.73-4.74,5.64-7.21,10.94-28.2,22.19-63.71,26.09-98.05-6.15-6.6-13.78-12.68-21.87-16.31Z"/>
      <path class="cls-3" d="M1608.48,523.34c1.26-20.28-27.25-7.63-45.4,18.27,15.13-5.73,30.66-11.91,45.4-18.27Z"/>
      <path class="cls-3" d="M1715.5,664.6c-5.26-1.84-10.28-1.45-14.96.57,3.65,15.26,8.7,31.2,13.86,45.77,1.76-1.27,3.46-2.55,5.09-3.83,8.67-18.65,11.97-36.91-4-42.51Z"/>
      <path class="cls-3" d="M1702.04,542.99c-.53,2.19-.88,4.51-1,6.98-.6,11.77.17,19.4,2.3,24,.1-10.45-.17-21.12-1.3-30.98Z"/>
      <path class="cls-3" d="M1448.05,528.31c6.99-8.89,17.97-16.33,34.49-21.12,10.3-2.99,19.58-7.52,27.96-13.23.14-1.65.37-3.49.61-5.46-12.94-16.15-25.68-27.27-25.68-27.27l-4.53-5.85-4.21,1.85c-10.59,46.3-14.99,34.99-16.26,1.15-7.55,20.49-12.52,41.85-14.03,63.88.86,1.91,1.4,3.96,1.64,6.06Z"/>
      <path class="cls-3" d="M1578.21,694.33c-2.32-11.16-6.23-21.19-11.33-29.35,1.2,11.41,4.79,21.44,11.33,29.35Z"/>
      <path class="cls-3" d="M1601.32,746.93c1.96-2.66,3.87-5.66,5.72-8.97-1.91-2.19-4.03-4.56-6.31-7.05.13,5.15.32,10.49.59,16.02Z"/>
      <path class="cls-3" d="M1629.68,408.4c-2.38-5.19-5.32-9.6-8.7-13.36-15.76,6.59-32.54,13.73-48.98,20.77-5.94,21.21-6.19,40.9,1.36,57.11,23.86-.99,50.53-3.95,69.78-6.84-2.56-23.47-6.97-43.54-13.47-57.68Z"/>
      <path class="cls-3" d="M1549.58,572.69c-2.76,14.96-5.23,27.93-7.31,38.67,21.3-21.48,42.1-44.09,54.42-61.73-3.53,3.43-7.17,7.06-10.93,10.91l-34.11,3.89c-.85,2.7-1.55,5.45-2.07,8.26Z"/>
      <path class="cls-3" d="M1630.09,262.58c-5.13,2.91-10.21,5.92-15.21,9.05,13.43,7.93,31.42,2.6,47.41-8.19.89-5.86.88-12.07.32-18.25-11.04,5.34-21.86,11.34-32.51,17.38Z"/>
      <path class="cls-3" d="M1929.31,439.05c3.87-.92,7.64-1.83,11.34-2.73.62-1.96,1.22-3.93,1.78-5.91,1.51-5.29,2.9-10.62,4.39-15.92-9.4,9-20.31,17.57-32.98,25.03,5.45.18,10.61,0,15.48-.47Z"/>
      <path class="cls-3" d="M1907.99,514.51c2.18-3.29,4.39-6.57,6.58-9.85.39-.89.77-1.79,1.15-2.68.06-.14.13-.31.23-.55,1.76-4.39,3.51-8.78,5.25-13.17-8.35-9.83-17.42-19.35-27.3-28.07-2.87-.05-5.78-.08-8.73-.08-18.7,19.85-12.24,39.29,5.26,56.59,6.06-.54,11.93-1.28,17.55-2.17Z"/>
      <path class="cls-3" d="M1883.91,553.9c4.37-6.04,8.08-12.6,11.75-19.13-1.69-1.51-3.34-3.03-4.88-4.55-9.74-2.4-20.03-4.77-30.59-6.97,7.63,10.66,15.68,21.14,23.52,30.92.07-.09.13-.18.2-.27Z"/>
      <path class="cls-3" d="M1829.24,628.09c3.64-2.98,7.27-5.94,10.41-9.45-3.66-10.02-7.83-20.03-12.25-29.58-17.59,4.35-36.84,10.47-53.32,18.93,1.67,5.11,3.69,10.17,6.04,15.13,10.52,6.94,24.05,11.38,38.98,14.04,3.27-3.17,6.66-6.23,10.14-9.07Z"/>
      <path class="cls-3" d="M1563.27,731.55c4.34,2.38,8.75,4.6,13.24,6.68,2.31-4.14,3.69-8.59,3.94-13.4.26-4.86.22-9.64-.08-14.3-12.37-11.21-26.11-21.39-38.51-25.32-8.89-2.82-18.26-4.44-27.22-5.29,2.06,10.37,6.57,19.89,12.53,28.53,11.66,8.28,23.54,16.21,36.09,23.1Z"/>
      <path class="cls-3" d="M1848.23,607.85c.45-.58.92-1.15,1.38-1.73.12-.19.4-.6.77-1.16,1.34-2.02,2.7-4.02,4.04-6.04.75-1.13,1.5-2.26,2.26-3.38,1.03-2.03,2.14-4.02,3.34-5.96-2.68-1.99-5.32-3.95-7.85-5.82-6.3,1.15-13.3,2.57-20.68,4.3,5.35,6.7,10.89,13.49,16.45,20.17.1-.13.2-.26.29-.38Z"/>
      <path class="cls-3" d="M1853.64,232.49c-.81-.35-1.61-.7-2.4-1.07-1.6-.25-3.2-.59-4.84-1.04-4.15-1.13-8.18-2.51-12.4-3.4-9.38-1.98-18.8-3.89-28.2-5.79-2.27-.46-4.54-.89-6.82-1.3-.86.07-1.73.05-2.6-.06-1.83-.23-3.64-.44-5.46-.65-6.81.2-13.62.48-20.41.74-5.71.22-11.42.64-17.1,1.23-6.23,2.42-12.63,5.36-19.14,8.79.05,2.24.16,4.66.36,7.3,1.28,17.39,17.08,22.86,35.87,22.85,2.64-6.12,3.99-10.83,4.64-14.34.02-5.41.18-8.51.18-8.51,0,0,.93,2.49-.18,8.51-.01,3.72.05,8.55.28,14.21,19.98-.95,42.12-7.24,53.44-11.63,7-2.71,16.77-8.57,26.5-15.14-.57-.24-1.14-.47-1.71-.71Z"/>
      <path class="cls-3" d="M1953.77,383.99c-.08-5.56-.16-11.11-.15-16.67,0-.85.01-1.7.03-2.55-5.06-.85-11.25-1.82-18.07-2.7,0,0-25.3,10.85-64.65,17.2-3.81,2.88-7.5,5.79-11.05,8.71.26.46.53.92.81,1.39,14.55,23.91,31.14,38.89,44.62,48.05,19.41-13.63,34.71-27.74,46.8-41.16.66-4.13,1.22-8.22,1.67-12.28Z"/>
      <path class="cls-3" d="M1914.3,261.61s-.1-.08-.15-.12c1.73,1.82,3.53,3.6,5.39,5.34.28-.04.55-.08.83-.11-1.98-1.76-4.04-3.4-6.08-5.1Z"/>
      <path class="cls-3" d="M1882.8,370.59c28.65-5.08,52.77-8.51,52.77-8.51-11.19-1.45-24.02-2.69-36.06-2.86-5.63,3.69-11.24,7.5-16.71,11.37Z"/>
      <path class="cls-3" d="M1787.74,523.85c4.28,3.34,11.94,13.91,20.53,28.5,9.57-.76,19.79-.73,30.66.41-4.68-3.47-9.33-6.85-13.92-10.11-11.91-8.45-23.42-16.08-34.05-22.35-1.11,1.17-2.19,2.35-3.21,3.54Z"/>
      <path class="cls-3" d="M1648.6,342.14c16.82-6.55,31.8-13.56,43.27-20.91,1.74-1.11,3.38-2.25,4.96-3.41-4.37-5.58-9.37-9.55-15.09-11.38-9.45-3.03-24.39-3.49-42.06-.65-10.26,11.2-19.9,22.91-28.58,34.82,11.95,1.1,24.71,1.75,37.49,1.53Z"/>
      <path class="cls-3" d="M1686.31,356.35c.65-1.19,1.28-2.39,1.91-3.59-15.5,5.29-32.97,12.02-51.66,20.4-.94,4.33-1.25,9.1-1.02,14.18l44.52-19.58c2.07-3.8,4.17-7.59,6.25-11.42Z"/>
      <path class="cls-3" d="M1659.85,416.67c2.06-7.72,4.42-15.35,7.42-22.79,3.04-7.53,6.65-14.69,10.44-21.77-11.09,4.19-25.71,10.07-42.08,16.84,1.1,16.87,7.69,36.74,15.32,53.92,2.51-8.65,5.56-17.48,8.9-26.19Z"/>
      <path class="cls-3" d="M1572.17,415.22l47.99-21.11c-3.08-3.26-6.52-5.99-10.25-8.25-11.21,5.67-22.69,11.91-34.3,18.74-1.3,3.57-2.45,7.12-3.44,10.62Z"/>
      <path class="cls-3" d="M1794.29,314.7c.68,1.59,1.33,3.39,1.95,5.36,2.6,5.75,3.58,12.04,3.94,18.51.47,3.38.85,6.96,1.14,10.7,16.31.61,38.29-.1,67.57-2.68,7.76-.68,15-1.9,21.74-3.55,5.91-7.88,8.97-17.56,10.16-28.09-35.62-3.24-77.62-5.12-106.51-.25Z"/>
      <path class="cls-3" d="M1726.03,268.13c-6.77-3.89-15.15-7.79-24.6-11.61-1.4,18.35-1.4,38.04,1.73,56.2,15.27-13.58,21.44-29.45,22.87-44.59Z"/>
      <path class="cls-3" d="M1579.59,325.76c-4.89,2.49-9.77,5.23-14.61,8.21,4.18.81,8.98,1.68,14.29,2.55.19-3.71.29-7.3.32-10.76Z"/>
      <path class="cls-3" d="M1813.42,446.43c-1.15-7.96-9.41-14.09-20.34-17.79-.92,2.69-1.92,5.35-3,8-4.31,11.95-9.93,23.54-17.19,34.13,14.7-3.31,29.37-6.7,42.76-9.56-.86-5.29-1.57-10.23-2.22-14.78Z"/>
      <path class="cls-3" d="M1816.15,464.22c-9.3,1.17-18.75,2.61-28.29,4.39-5.6,1.04-10.95,2.3-16.08,3.76-.36.51-.73,1.01-1.1,1.51-1.91,3.82-3.83,7.55-6.39,11.13.3.35.59.69.9,1.04,2.65,2.95,5.54,5.95,8.61,8.97,16.42-4.13,31.61-8.81,45.71-13.89-1.37-5.96-2.45-11.6-3.36-16.91Z"/>
      <path class="cls-3" d="M1538.01,547.33c-.08-7.04-1.71-14.22-4.35-21.29-8.69,8.23-19.06,21.78-29.2,36.48,9.88-3.33,21.33-7.28,33.58-11.68,0-1.18-.02-2.35-.03-3.51Z"/>
      <path class="cls-3" d="M1566.16,410.28c-11.32,6.94-22.72,14.46-34.07,22.57l31.06-13.66c1.06-2.95,2.06-5.92,3.01-8.91Z"/>
      <path class="cls-3" d="M1562.98,419.68c-10.91,4.69-21.55,9.29-31.51,13.61-7.49,5.36-14.95,10.99-22.36,16.89,7.47,6.22,16.48,12.89,27.07,19.41,11.46-14.58,20.24-31.84,26.79-49.9Z"/>
      <path class="cls-3" d="M1722.99,236.27c-5.37,3.2-10.78,6.68-16.2,10.42,6.1,1.63,12.47,3.29,19.07,4.96-.58-5.46-1.62-10.65-2.87-15.38Z"/>
      <path class="cls-3" d="M1537.99,565.99l-15.81,1.8c-2.68,13.79-6.89,39.55-8.33,71.4,7.29-6.96,14.98-14.42,22.7-22.11.62-14.99,1.25-33.6,1.44-51.1Z"/>
      <path class="cls-3" d="M1503.72,454.54c-1.12.92-2.25,1.84-3.37,2.77,3.29,2.15,6.58,4.17,9.84,5.97-1.28-3.37-3.32-6.38-6.47-8.74Z"/>
      <path class="cls-3" d="M1502.65,444.58c6.32-15.17,15.03-38.21,19.76-60.06-5.74,1.63-11.32,3.4-16.61,5.23-7.72,11.27-14.5,23.82-19.98,37.74,3.56,4.16,9.14,10.18,16.82,17.09Z"/>
      <path class="cls-3" d="M1525.39,365.71c-4.65,4.84-9.12,10-13.36,15.49,3.72-.83,7.59-1.7,11.57-2.62.81-4.4,1.42-8.72,1.79-12.87Z"/>
      <path class="cls-3" d="M1489.38,449.63c.57.42,1.14.84,1.71,1.26l1.77-.78c-1.1-.2-2.26-.36-3.48-.48Z"/>
      <path class="cls-3" d="M1491.1,450.89c2.23,1.63,4.5,3.23,6.77,4.77.48-1.07,1.01-2.27,1.58-3.58-1.91-.84-4.09-1.5-6.58-1.96-.6.26-1.2.52-1.78.78Z"/>
      <path class="cls-3" d="M1867.39,460.33c-13.44.39-27.52,1.27-42.01,2.82,1.62,4.33,3.62,8.86,5.93,13.53,13.02-5.13,25.03-10.62,36.08-16.35Z"/>
      <path class="cls-3" d="M1770.26,559.67c10.2-3.08,21.54-5.66,34.02-6.95-9.17-12.46-15.84-22.3-18.1-26.96-8.44,10.47-13.56,21.97-15.91,33.92Z"/>
      <path class="cls-3" d="M1820.65,442.21c.1,5.14,1.32,10.96,3.41,17.25,9.78-2,18.64-3.61,26.01-4.57,9.07-1.18,19.68-3.02,30.94-5.23-15.91-11.98-33.71-21.7-53.64-27.48-4.39,7.02-6.84,13.77-6.72,20.04Z"/>
      <path class="cls-3" d="M1810.73,556.62c2.87,5.04,5.82,10.47,8.75,16.2,2.94,3.8,5.99,7.68,9.11,11.62,7.68-1.22,14.57-2.14,20.63-2.83-19.37-14.22-33.62-24.09-36.75-24.78-.45-.1-1.05-.16-1.75-.2Z"/>
      <path class="cls-3" d="M1768.06,611.26c2.77,3.9,5.57,7.02,8.32,9.2-1.15-4.03-2.33-7.98-3.53-11.83-1.63.85-3.22,1.73-4.79,2.63Z"/>
      <path class="cls-3" d="M1837.31,487.95c5.5,9.7,12.01,19.78,19,29.81,7.68.19,15.3.09,22.73-.28-15.83-18.73-24.06-33.69-41.73-29.53Z"/>
      <path class="cls-3" d="M1796.4,515.02c15.41,12.51,33.05,25.08,50.97,36.92-6.88-12.01-12.26-23.42-16.52-34.17-11.02-1.8-22.04-3.28-32.74-4.28-.57.5-1.14,1.01-1.71,1.53Z"/>
      <path class="cls-3" d="M1801.27,510.72c9.28,2.31,18.99,4.02,28.84,5.19-2.91-7.52-5.27-14.72-7.22-21.56-6.14,3.75-13.25,9.12-21.62,16.37Z"/>
      <path class="cls-3" d="M1739.3,571.17c-.84-8.87-1.94-17.66-3.37-26.1-8.13-4.24-17.83-8.84-28.55-13.46-1.61,2.13-2.93,4.47-3.95,7.01-.07,12.01,1.77,25.79,4.91,40.47,6.31,2.53,16.61-1.92,30.96-7.91Z"/>
      <path class="cls-3" d="M1769.53,563.93c-1.52,10.73-.91,21.76,1.45,32.68,20.97-5.42,39.21-9.13,54.49-11.66-1.97-4.15-3.98-8.21-5.99-12.13-4.38-5.65-8.52-11.09-12.3-16.17-7.84.41-21.99,2.79-37.65,7.28Z"/>
      <path class="cls-3" d="M1897.35,270.52c.21-.04.42-.08.63-.12-.77-4.28-1.62-8.5-2.5-12.62-1.91-2.16-4.14-4.58-6.81-7.33-15.36-15.83-60.6-.57-89.38,18.53,21.11,4.68,42.38,9.18,62.48,13.25,12.58-5.11,24.86-9.57,35.58-11.71Z"/>
      <path class="cls-3" d="M1739.64,574.84c-10.54,4.83-20.42,10.65-28.18,17.52,1.6,6.27,3.39,12.64,5.32,19.06,3.84-.41,8.07-1.32,12.74-2.81,4.01-1.28,7.94-2.5,11.81-3.67-.29-9.86-.82-20.02-1.69-30.1Z"/>
      <path class="cls-3" d="M1756.82,567.96c-2.59.9-5.19,1.87-7.78,2.88,3.56,10.64,7.59,20.34,11.83,28.46,2.78-.76,5.51-1.49,8.2-2.2-3.85-11.08-7.94-21.01-12.25-29.15Z"/>
      <path class="cls-3" d="M1739.55,675c.86-9.51,1.71-24.06,1.97-41.07-5.24,7.45-8.26,15.87-8.17,25.37,2.05,5.32,4.12,10.57,6.2,15.7Z"/>
      <path class="cls-3" d="M1742.78,549.16c1.55,6.34,3.3,12.52,5.2,18.44,2.29-.92,4.66-1.85,7.12-2.77-3.93-6.89-8.04-12.26-12.31-15.67Z"/>
      <path class="cls-3" d="M1834.21,412.8c7.77,6.16,16.55,11.33,26.48,15.14,8.78,3.37,17.09,5.91,24.95,7.74-.63-2.76-1.38-5.85-2.28-9.32-2.46-9.48-15.21-19.74-33.67-29.56-5.88,5.37-11.12,10.73-15.48,16Z"/>
      <path class="cls-3" d="M1900.72,289.85c-.34-3.63-.8-7.27-1.34-10.9-7.72,1.75-15.66,3.81-23.66,6.08,8.67,1.71,17.04,3.33,25,4.83Z"/>
      <path class="cls-3" d="M1775.31,237.24s-.16,3.1-.18,8.51c1.12-6.02.18-8.51.18-8.51Z"/>
      <path class="cls-2" d="M1775.31,237.24s-.16,3.1-.18,8.51c1.12-6.02.18-8.51.18-8.51Z"/>
      <path class="cls-2" d="M1952.29,397.5c.26-.76.52-1.53.76-2.3-.32.36-.63.71-.95,1.07-.18,1.12-.37,2.24-.57,3.36.25-.71.51-1.42.75-2.13Z"/>
      <path class="cls-2" d="M1535.1,340.3c-.5.78-1.02,1.55-1.55,2.32.94-1.05,1.89-2.07,2.83-3.11-.42.27-.85.53-1.28.79Z"/>
      <path class="cls-2" d="M1445.83,540.54c-.1.44-.23.88-.36,1.32-.02.39-.13.83-.22,1.13-.03.17-.05.31-.05.39-.21,3.55.04,7.06.34,10.59.32.71.33,1.99.23,1.86,0,.03,0,.06.01.08.25,1.54.54,3.07.8,4.61.75,4.34,1.44,8.69,2.22,13.02,1.46,8.14,3.06,16.25,4.9,24.31.84,3.7,1.71,7.39,2.9,10.99.53,1.59,1.17,3.14,1.71,4.72,0,0,0,.01,0,.02.25.55.49,1.1.75,1.64,1.73,3.71,3.66,7.33,5.74,10.86.3-.52.61-1.06.95-1.65-13.21-28.75-19.23-56.94-19.76-84.21-.05.1-.1.21-.15.32Z"/>
      <path class="cls-2" d="M1953.6,336.03c-.1-.64-.22-1.27-.33-1.9.45,2.97.82,5.98,1.1,9.02.02-1.08.04-2.16.05-3.24-.32-1.28-.6-2.58-.81-3.88Z"/>
      <path class="cls-2" d="M1722.24,510.54c-2.46,1.32-4.92,2.65-7.44,3.86-3.14,1.51-6.22,2.79-9.32,3.9,11.93-3.15,22.49-7.74,31.82-13.44-4.96,2.13-10.06,3.95-15.06,5.68Z"/>
      <path class="cls-2" d="M1800.37,352.98c0,14.46.66,29.28-.61,43.75,2.37-17,2.64-33.39,1.55-47.46-.32-.01-.62-.03-.94-.04,0,1.25,0,2.5,0,3.75Z"/>
      <path class="cls-2" d="M1705.75,325.89c.17-.3.32-.61.5-.9,7.73-12.95,21.88-19.91,35.94-23.85,4.4-1.23,9.01-2.04,13.63-2.31-15.09-2.35-32.67,1.28-52.91,30.04.9-1.02,1.84-2.01,2.84-2.97Z"/>
      <path class="cls-2" d="M1788.3,309.12c1.98,1.82,3.63,3.74,5.01,5.75.33-.06.65-.11.98-.17-2.34-5.49-5.01-8.61-7.68-8.61-.74,0-1.49-.04-2.24-.11,1.36.94,2.68,1.98,3.93,3.14Z"/>
      <path class="cls-2" d="M1644.9,478.77c.17-.99.35-1.98.53-2.97.04-.22.07-.4.1-.55,0-.02,0-.03,0-.04,1.31-10.73,2.7-20.57,6.27-30.44-.29-.63-.57-1.26-.86-1.9-4.29,14.8-7.02,29.08-6.93,41.34.26-1.82.57-3.63.88-5.43Z"/>
      <path class="cls-3" d="M1935.57,362.07s-24.12,3.43-52.77,8.51c5.48-3.87,11.08-7.68,16.71-11.37,12.04.16,24.86,1.4,36.06,2.86,6.82.89,13.02,1.85,18.07,2.7.11-7.21.56-14.41.72-21.62-.28-3.04-.65-6.05-1.1-9.02-1.37-7.69-3.34-14.82-6.06-22.25-.85-2.33-1.74-4.65-2.66-6.95-.31-.78-.63-1.56-.94-2.34-1.54-3.47-3.1-6.91-4.84-10.28-1.72-3.34-3.52-6.63-5.48-9.83-.82-1.35-1.67-2.68-2.55-3.99-.58-.87-1.19-1.71-1.78-2.58-.03-.04-.08-.12-.15-.22-.37-.47-.96-1.22-1.1-1.39-.5-.6-1.01-1.19-1.53-1.78-1.22-1.37-2.49-2.7-3.81-3.98-.65-.63-1.31-1.24-1.98-1.84-.28.04-.55.08-.83.11-1.87-1.74-3.67-3.52-5.39-5.34-2.89-2.42-5.68-4.97-8.62-7.34.3.3-1.87-1.25-2.63-1.69-1.5-.88-3.08-1.58-4.62-2.38,3.26,1.71-.15-.05-.94-.36-.81-.31-1.62-.61-2.44-.91-1.62-.6-3.25-1.17-4.88-1.77-2.4-.89-4.77-1.83-7.13-2.83-.39-.17-.72-.3-1.02-.43-.82-.33-1.64-.67-2.46-1-8.02-3.21-16.1-6.23-24.07-9.58-9.73,6.57-19.5,12.42-26.5,15.14-11.32,4.39-33.46,10.68-53.44,11.63-.23-5.66-.29-10.49-.28-14.21-.65,3.51-2,8.22-4.64,14.34-18.79.02-34.6-5.45-35.87-22.85-.19-2.64-.31-5.06-.36-7.3,6.51-3.42,12.91-6.36,19.14-8.79-1.03.11-2.07.21-3.1.33-.5.06-1.91.24-2.51.31-1.12.16-2.23.33-3.35.5-3.03.48-6.05,1.01-9.06,1.63-12.68,2.63-25.36,5.42-37.86,8.8-6.09,1.65-12.14,3.47-18.11,5.54-2.85.99-5.67,2.03-8.47,3.14-.42.17-1.58.66-2.17.91-1.34.59-2.68,1.19-4.01,1.82-.72.34-1.44.7-2.16,1.04.57,6.18.57,12.39-.32,18.25-15.98,10.79-33.98,16.12-47.41,8.19-.57.36-1.15.71-1.72,1.08-2.86,1.81-5.71,3.65-8.47,5.6-.5.36-1,.73-1.5,1.09.09-.03-2.34,1.87-2.63,2.12-4.48,3.81-8.37,8.15-12.62,12.19-4.32,4.1-9.07,7.76-13.16,12.11-7.94,8.46-17.44,14.91-25.63,23.09-4.13,4.13-8.29,7.73-12.76,10.6-.94,1.03-1.89,2.06-2.83,3.11-5.91,8.53-13.45,16.35-19.93,23.99-.1.12-.25.27-.42.42-.18.24-.44.59-.82,1.09-.35.47-.7.95-1.05,1.42-2.1,2.88-4.14,5.8-6.13,8.75-3.69,5.48-7.21,11.09-10.6,16.77-6.77,11.32-13.02,22.93-19.17,34.59-1.07,2.03-2.49,3.7-4.12,5.06-.73,1.3-1.45,2.59-.43.87,1.56-2.62-.83,2.12-1.08,2.76-.58,1.49-1.14,2.98-1.74,4.46-2.09,5.15-4.27,10.3-7.35,14.85-.09.25-.19.49-.28.73,1.27,33.84,5.67,45.15,16.26-1.15l4.21-1.85,4.53,5.85s12.74,11.11,25.68,27.27c-.24,1.97-.46,3.81-.61,5.46-8.38,5.71-17.67,10.24-27.96,13.23-16.52,4.8-27.5,12.23-34.49,21.12.46,4.05-.23,8.26-2.07,11.92.53,27.27,6.55,55.45,19.76,84.21,6.25-10.83,19.21-32.81,33.36-54.01l9.96-1.14c3.02,14.22,7.84,45.77-.9,74.44-8.69,1.55-18.18,2.95-28.05,4.2,1.13,1.61,2.25,3.23,3.35,4.85,4.48,6.63,8.73,13.4,13.25,20,1.22,1.78,2.57,3.49,3.72,5.3.19.3.31.49.39.62.51.65,1.02,1.29,1.51,1.92,2.2,2.84,4.37,5.7,6.52,8.57,1.09,1.45,2.18,2.9,3.28,4.35.16.21.28.38.39.52.11.14.25.31.43.53,1.98,2.47,3.98,4.92,6.09,7.29.62.69,1.24,1.37,1.87,2.05,2.09,1.51,4.18,3.02,6.28,4.51-5.96-8.64-10.47-18.16-12.53-28.53,8.96.85,18.33,2.47,27.22,5.29,12.4,3.94,26.15,14.11,38.51,25.32.29,4.66.33,9.44.08,14.3-.25,4.81-1.63,9.27-3.94,13.4.93.43,1.85.86,2.79,1.28.38.14,3.16,1.32,3.41,1.42,1.16.45,2.32.89,3.48,1.32,3.2,1.18,6.44,2.27,9.7,3.26,6.57,1.99,13.29,3.61,20.09,4.6.26.02.57.05.96.08,1.84.15,3.67.33,5.52.42,3.08.16,6.16.2,9.24.1,1.86-.06,3.71-.17,5.56-.33.3-.03,3.78-.55,3.7-.49,2.52-.46,5.02-.97,7.51-1.57,5.77-1.39,11.49-3.03,17.14-4.86,6.38-2.06,12.68-4.37,18.91-6.86.2-.08,3.09-1.27,3.37-1.38.7-.3,1.4-.6,2.1-.91,3.04-1.33,6.06-2.71,9.06-4.13,9.42-4.46,18.67-9.26,27.52-14.75.73-.47,1.46-.94,2.19-1.41,2.9-2.27,5.81-4.54,8.74-6.78,4.03-3.08,8.1-5.81,12.26-8.33,3.21-2.57,6.4-5.17,9.57-7.8,10.31-8.57,20.31-17.42,31.6-24.73.07-.04.13-.09.19-.13,2.23-2.89,5.1-5.35,8.08-7.19.66-.66,1.32-1.32,1.96-2,.78-.81,1.49-1.7,2.27-2.5.06-.06.1-.1.16-.15.01-.01.01-.02.03-.04,1.59-2.15,3.23-4.27,4.98-6.29.32-.45.63-.9.96-1.35.02-.04.05-.09.07-.13,0,0,.01,0,.02.01.97-1.32,1.98-2.64,3.03-3.96,1.28-1.61,2.87-2.84,4.62-3.74.6-.6,1.2-1.19,1.81-1.78-14.93-2.67-28.46-7.11-38.98-14.04-2.35-4.96-4.37-10.02-6.04-15.13,16.48-8.47,35.73-14.59,53.32-18.93,4.42,9.56,8.59,19.56,12.25,29.58.06-.07.13-.13.19-.2.75-.85,1.46-1.73,2.19-2.59.32-.39.55-.66.71-.84,1.75-2.24,3.46-4.52,5.21-6.77-5.56-6.67-11.09-13.47-16.45-20.17,7.37-1.73,14.38-3.15,20.68-4.3,2.53,1.87,5.17,3.82,7.85,5.82,3.3-5.35,7.2-10.36,11.5-15.07,2.77-7.48,7.49-13.84,12.19-20.34-7.84-9.79-15.89-20.26-23.52-30.92,10.56,2.2,20.85,4.58,30.59,6.97,1.55,1.52,3.19,3.03,4.88,4.55,1.13-2.01,2.26-4.02,3.4-6.01,2.78-4.86,5.82-9.58,8.93-14.26-5.63.89-11.49,1.63-17.55,2.17-17.51-17.29-23.97-36.74-5.26-56.59,2.95,0,5.86.03,8.73.08,9.89,8.72,18.96,18.25,27.3,28.07,1.31-3.32,2.61-6.64,3.87-9.98,5.26-13.89,11.09-27.76,15.57-41.96-3.7.9-7.47,1.81-11.34,2.73-4.87.47-10.03.65-15.48.47,12.67-7.46,23.59-16.03,32.98-25.03.72-2.56,1.45-5.12,2.25-7.67.76-2.42,1.63-4.8,2.48-7.18.2-1.12.39-2.24.57-3.36-12.09,13.41-27.39,27.53-46.8,41.16-13.47-9.16-30.06-24.14-44.62-48.05-.29-.47-.55-.93-.81-1.39,3.55-2.92,7.24-5.83,11.05-8.71,39.35-6.35,64.65-17.2,64.65-17.2ZM1476.7,457.22c.02-.07.03-.14.05-.22.41-1.8.85-3.56,1.3-5.32l2.86,3.69c-1.55.68-2.96,1.3-4.2,1.85ZM1900.72,289.85c-7.96-1.5-16.33-3.11-25-4.83,8-2.27,15.94-4.32,23.66-6.08.54,3.63,1,7.27,1.34,10.9ZM1888.66,250.45c2.67,2.75,4.9,5.17,6.81,7.33.88,4.12,1.73,8.34,2.5,12.62-.21.04-.42.08-.63.12-10.72,2.13-23,6.59-35.58,11.71-20.1-4.07-41.37-8.57-62.48-13.25,28.78-19.1,74.03-34.36,89.38-18.53ZM1722.99,236.27c1.25,4.74,2.29,9.92,2.87,15.38-6.6-1.67-12.97-3.33-19.07-4.96,5.42-3.74,10.83-7.22,16.2-10.42ZM1701.43,256.52c9.45,3.82,17.83,7.72,24.6,11.61-1.42,15.14-7.6,31-22.87,44.59-3.13-18.16-3.13-37.85-1.73-56.2ZM1639.69,305.79c17.66-2.83,32.6-2.38,42.06.65,5.72,1.83,10.73,5.8,15.09,11.38-1.58,1.16-3.23,2.3-4.96,3.41-11.47,7.35-26.46,14.36-43.27,20.91-12.78.22-25.54-.43-37.49-1.53,8.68-11.91,18.32-23.62,28.58-34.82ZM1573.36,472.92c-7.55-16.21-7.31-35.9-1.36-57.11,16.43-7.04,33.22-14.18,48.98-20.77,3.37,3.76,6.31,8.17,8.7,13.36,6.5,14.14,10.91,34.21,13.47,57.68-19.25,2.88-45.92,5.85-69.78,6.84ZM1608.48,523.34c-14.74,6.36-30.27,12.55-45.4,18.27,18.15-25.9,46.66-38.55,45.4-18.27ZM1609.91,385.87c3.72,2.26,7.17,4.98,10.25,8.25l-47.99,21.11c1-3.5,2.15-7.04,3.44-10.62,11.61-6.83,23.09-13.07,34.3-18.74ZM1579.59,325.76c-.03,3.45-.14,7.05-.32,10.76-5.31-.87-10.11-1.74-14.29-2.55,4.84-2.97,9.72-5.71,14.61-8.21ZM1566.16,410.28c-.95,2.98-1.95,5.95-3.01,8.91l-31.06,13.66c11.35-8.11,22.76-15.63,34.07-22.57ZM1525.39,365.71c-.37,4.16-.98,8.47-1.79,12.87-3.98.92-7.85,1.79-11.57,2.62,4.24-5.5,8.71-10.66,13.36-15.49ZM1505.81,389.76c5.29-1.83,10.86-3.61,16.61-5.23-4.73,21.85-13.44,44.89-19.76,60.06-7.68-6.91-13.26-12.93-16.82-17.09,5.48-13.92,12.25-26.47,19.98-37.74ZM1489.38,449.63c1.22.12,2.38.28,3.48.48l-1.77.78c-.57-.42-1.14-.84-1.71-1.26ZM1497.87,455.66c-2.27-1.54-4.54-3.14-6.77-4.77.58-.26,1.18-.52,1.78-.78,2.49.46,4.67,1.13,6.58,1.96-.57,1.31-1.1,2.51-1.58,3.58ZM1500.35,457.31c1.12-.93,2.24-1.85,3.37-2.77,3.15,2.35,5.19,5.37,6.47,8.74-3.25-1.8-6.55-3.81-9.84-5.97ZM1536.55,617.09c-7.72,7.69-15.41,15.15-22.7,22.11,1.44-31.86,5.64-57.62,8.33-71.4l15.81-1.8c-.19,17.5-.82,36.11-1.44,51.1ZM1504.45,562.52c10.14-14.69,20.51-28.24,29.2-36.48,2.64,7.06,4.27,14.25,4.35,21.29.01,1.15.02,2.33.03,3.51-12.25,4.4-23.7,8.35-33.58,11.68ZM1536.19,469.59c-10.59-6.52-19.6-13.19-27.07-19.41,7.4-5.9,14.87-11.52,22.36-16.89,9.95-4.32,20.59-8.92,31.51-13.61-6.55,18.06-15.33,35.32-26.79,49.9ZM1549.58,572.69c.52-2.8,1.22-5.56,2.07-8.26l34.11-3.89c3.76-3.85,7.4-7.48,10.93-10.91-12.32,17.64-33.12,40.25-54.42,61.73,2.08-10.75,4.55-23.72,7.31-38.67ZM1566.88,664.98c5.1,8.16,9.01,18.18,11.33,29.35-6.53-7.9-10.13-17.94-11.33-29.35ZM1601.32,746.93c-.26-5.54-.46-10.87-.59-16.02,2.28,2.49,4.4,4.86,6.31,7.05-1.85,3.31-3.76,6.31-5.72,8.97ZM1609.41,733.51c-2.34-3.29-5.25-7.19-8.84-11.8-.91-88.96,18.92-116.84,40.58-118.58-5.87,52.14-16.94,101.15-31.74,130.39ZM1571.93,619.58c8.11-29.37,24.39-60.93,43.43-87.1,6.02-5.18,11.63-9.64,16.87-13.44,4.73,1.93,9.29,4.22,13.62,6.89-.11,14.96-.73,30.36-1.82,45.78-24.74,18.68-51.04,35.73-72.1,47.87ZM1654.03,720.89c-1.9,2.47-3.79,4.88-5.64,7.21-4.2-15.02-6.1-36.09-1.38-65.08,2.95-18.14,6.36-37.4,11.24-56.5,8.09,3.63,15.72,9.71,21.87,16.31-3.9,34.35-15.15,69.86-26.09,98.05ZM1698.73,608.47c1.05-2.18,2.33-4.28,3.78-6.31-.1,2.77-.2,5.43-.27,7.93-1.25-.45-2.42-.99-3.51-1.62ZM1701.03,549.97c.13-2.47.47-4.79,1-6.98,1.13,9.85,1.4,20.53,1.3,30.98-2.14-4.6-2.9-12.22-2.3-24ZM1719.5,707.11c-1.63,1.28-3.33,2.56-5.09,3.83-5.16-14.57-10.22-30.51-13.86-45.77,4.68-2.02,9.69-2.41,14.96-.57,15.97,5.6,12.67,23.86,4,42.51ZM1703.43,538.61c1.02-2.55,2.34-4.88,3.95-7.01,10.72,4.62,20.42,9.23,28.55,13.46,1.43,8.45,2.53,17.23,3.37,26.1-14.35,5.99-24.66,10.44-30.96,7.91-3.14-14.68-4.98-28.46-4.91-40.47ZM1716.78,611.42c-1.94-6.42-3.73-12.8-5.32-19.06,7.75-6.87,17.63-12.69,28.18-17.52.87,10.09,1.4,20.24,1.69,30.1-3.87,1.17-7.8,2.39-11.81,3.67-4.67,1.49-8.9,2.4-12.74,2.81ZM1739.55,675c-2.08-5.13-4.15-10.38-6.2-15.7-.09-9.5,2.93-17.91,8.17-25.37-.26,17.01-1.11,31.56-1.97,41.07ZM1742.78,549.16c4.27,3.41,8.38,8.78,12.31,15.67-2.46.92-4.83,1.85-7.12,2.77-1.89-5.92-3.64-12.1-5.2-18.44ZM1749.04,570.84c2.59-1.02,5.18-1.98,7.78-2.88,4.31,8.14,8.4,18.06,12.25,29.15-2.69.7-5.42,1.44-8.2,2.2-4.23-8.12-8.26-17.82-11.83-28.46ZM1776.38,620.46c-2.75-2.18-5.54-5.3-8.32-9.2,1.56-.9,3.16-1.78,4.79-2.63,1.2,3.85,2.38,7.8,3.53,11.83ZM1828.6,584.44c-3.13-3.94-6.17-7.83-9.11-11.62,2.01,3.92,4.01,7.97,5.99,12.13-15.28,2.53-33.52,6.24-54.49,11.66-2.36-10.92-2.97-21.95-1.45-32.68,15.66-4.49,29.81-6.87,37.65-7.28,3.78,5.08,7.93,10.52,12.3,16.17-2.94-5.73-5.88-11.16-8.75-16.2.7.04,1.29.1,1.75.2,3.13.69,17.38,10.56,36.75,24.78-6.06.69-12.94,1.61-20.63,2.83ZM1830.12,515.9c-9.86-1.17-19.56-2.87-28.84-5.19,8.37-7.25,15.48-12.62,21.62-16.37,1.95,6.84,4.31,14.03,7.22,21.56ZM1825.38,463.15c14.5-1.55,28.58-2.43,42.01-2.82-11.06,5.73-23.07,11.21-36.08,16.35-2.31-4.67-4.31-9.2-5.93-13.53ZM1830.85,517.77c4.26,10.75,9.64,22.16,16.52,34.17-17.92-11.84-35.55-24.4-50.97-36.92.58-.52,1.15-1.03,1.71-1.53,10.7,1,21.71,2.48,32.74,4.28ZM1825,542.66c4.59,3.26,9.24,6.64,13.92,10.11-10.87-1.14-21.09-1.17-30.66-.41-8.59-14.59-16.24-25.16-20.53-28.5,1.02-1.2,2.1-2.38,3.21-3.54,10.63,6.27,22.14,13.9,34.05,22.35ZM1804.27,552.71c-12.48,1.29-23.82,3.87-34.02,6.95,2.35-11.95,7.47-23.45,15.91-33.92,2.26,4.67,8.93,14.5,18.1,26.96ZM1879.05,517.48c-7.44.37-15.06.47-22.73.28-6.99-10.03-13.5-20.11-19-29.81,17.68-4.16,25.91,10.8,41.73,29.53ZM1850.08,454.88c-7.37.96-16.23,2.57-26.01,4.57-2.09-6.29-3.32-12.11-3.41-17.25-.12-6.27,2.34-13.02,6.72-20.04,19.93,5.78,37.73,15.5,53.64,27.48-11.26,2.21-21.87,4.05-30.94,5.23ZM1883.36,426.36c.9,3.48,1.65,6.57,2.28,9.32-7.86-1.83-16.18-4.37-24.95-7.74-9.93-3.81-18.71-8.98-26.48-15.14,4.36-5.27,9.6-10.63,15.48-16,18.46,9.82,31.21,20.08,33.67,29.56ZM1801.32,349.27c1.09,14.06.82,30.46-1.55,47.46-.14,1.62-.3,3.25-.5,4.86-1.13,9.42-3.22,18.35-6.2,27.05,10.94,3.7,19.2,9.83,20.34,17.79.66,4.56,1.36,9.49,2.22,14.78-13.38,2.86-28.06,6.25-42.76,9.56-.37.54-.74,1.07-1.11,1.6,5.13-1.45,10.49-2.71,16.08-3.76,9.54-1.78,18.99-3.23,28.29-4.39.91,5.3,1.99,10.95,3.36,16.91-14.09,5.08-29.29,9.76-45.71,13.89-3.08-3.02-5.97-6.02-8.61-8.97-.31-.35-.6-.69-.9-1.04-.52.73-1.06,1.44-1.64,2.16-6.67,8.23-15.74,13.56-25.34,17.69-9.34,5.69-19.89,10.28-31.82,13.44-6.24,2.22-12.56,3.62-19.59,4.1-.4.03-.79.02-1.18.02-1.25.22-2.51.41-3.79.54-11.64,1.23-23.41-3.61-30.56-12.86-4.65-6.02-7.16-13.15-6.84-20.85.07-1.68.26-3.36.49-5.03-.08-12.26,2.64-26.54,6.93-41.34-7.62-17.18-14.21-37.05-15.32-53.92,16.37-6.77,30.99-12.65,42.08-16.84.78-1.45,1.56-2.9,2.35-4.34l-44.52,19.58c-.23-5.08.07-9.86,1.02-14.18,18.69-8.38,36.16-15.11,51.66-20.4,4.39-8.39,8.45-16.83,14.7-23.9,20.24-28.76,37.82-32.39,52.91-30.04,10.08-.59,20.24,1.4,28.54,7.16.76.07,1.51.11,2.24.11,2.67,0,5.33,3.12,7.68,8.61,28.89-4.88,70.89-2.99,106.51.25-1.19,10.54-4.25,20.21-10.16,28.09-6.75,1.65-13.98,2.87-21.74,3.55-29.28,2.58-51.26,3.29-67.57,2.68Z"/>
      <path class="cls-2" d="M1935.57,362.07s-24.12,3.43-52.77,8.51c5.48-3.87,11.08-7.68,16.71-11.37,12.04.16,24.86,1.4,36.06,2.86,6.82.89,13.02,1.85,18.07,2.7.11-7.21.56-14.41.72-21.62-.28-3.04-.65-6.05-1.1-9.02-1.37-7.69-3.34-14.82-6.06-22.25-.85-2.33-1.74-4.65-2.66-6.95-.31-.78-.63-1.56-.94-2.34-1.54-3.47-3.1-6.91-4.84-10.28-1.72-3.34-3.52-6.63-5.48-9.83-.82-1.35-1.67-2.68-2.55-3.99-.58-.87-1.19-1.71-1.78-2.58-.03-.04-.08-.12-.15-.22-.37-.47-.96-1.22-1.1-1.39-.5-.6-1.01-1.19-1.53-1.78-1.22-1.37-2.49-2.7-3.81-3.98-.65-.63-1.31-1.24-1.98-1.84-.28.04-.55.08-.83.11-1.87-1.74-3.67-3.52-5.39-5.34-2.89-2.42-5.68-4.97-8.62-7.34.3.3-1.87-1.25-2.63-1.69-1.5-.88-3.08-1.58-4.62-2.38,3.26,1.71-.15-.05-.94-.36-.81-.31-1.62-.61-2.44-.91-1.62-.6-3.25-1.17-4.88-1.77-2.4-.89-4.77-1.83-7.13-2.83-.39-.17-.72-.3-1.02-.43-.82-.33-1.64-.67-2.46-1-8.02-3.21-16.1-6.23-24.07-9.58-9.73,6.57-19.5,12.42-26.5,15.14-11.32,4.39-33.46,10.68-53.44,11.63-.23-5.66-.29-10.49-.28-14.21-.65,3.51-2,8.22-4.64,14.34-18.79.02-34.6-5.45-35.87-22.85-.19-2.64-.31-5.06-.36-7.3,6.51-3.42,12.91-6.36,19.14-8.79-1.03.11-2.07.21-3.1.33-.5.06-1.91.24-2.51.31-1.12.16-2.23.33-3.35.5-3.03.48-6.05,1.01-9.06,1.63-12.68,2.63-25.36,5.42-37.86,8.8-6.09,1.65-12.14,3.47-18.11,5.54-2.85.99-5.67,2.03-8.47,3.14-.42.17-1.58.66-2.17.91-1.34.59-2.68,1.19-4.01,1.82-.72.34-1.44.7-2.16,1.04.57,6.18.57,12.39-.32,18.25-15.98,10.79-33.98,16.12-47.41,8.19-.57.36-1.15.71-1.72,1.08-2.86,1.81-5.71,3.65-8.47,5.6-.5.36-1,.73-1.5,1.09.09-.03-2.34,1.87-2.63,2.12-4.48,3.81-8.37,8.15-12.62,12.19-4.32,4.1-9.07,7.76-13.16,12.11-7.94,8.46-17.44,14.91-25.63,23.09-4.13,4.13-8.29,7.73-12.76,10.6-.94,1.03-1.89,2.06-2.83,3.11-5.91,8.53-13.45,16.35-19.93,23.99-.1.12-.25.27-.42.42-.18.24-.44.59-.82,1.09-.35.47-.7.95-1.05,1.42-2.1,2.88-4.14,5.8-6.13,8.75-3.69,5.48-7.21,11.09-10.6,16.77-6.77,11.32-13.02,22.93-19.17,34.59-1.07,2.03-2.49,3.7-4.12,5.06-.73,1.3-1.45,2.59-.43.87,1.56-2.62-.83,2.12-1.08,2.76-.58,1.49-1.14,2.98-1.74,4.46-2.09,5.15-4.27,10.3-7.35,14.85-.09.25-.19.49-.28.73,1.27,33.84,5.67,45.15,16.26-1.15l4.21-1.85,4.53,5.85s12.74,11.11,25.68,27.27c-.24,1.97-.46,3.81-.61,5.46-8.38,5.71-17.67,10.24-27.96,13.23-16.52,4.8-27.5,12.23-34.49,21.12.46,4.05-.23,8.26-2.07,11.92.53,27.27,6.55,55.45,19.76,84.21,6.25-10.83,19.21-32.81,33.36-54.01l9.96-1.14c3.02,14.22,7.84,45.77-.9,74.44-8.69,1.55-18.18,2.95-28.05,4.2,1.13,1.61,2.25,3.23,3.35,4.85,4.48,6.63,8.73,13.4,13.25,20,1.22,1.78,2.57,3.49,3.72,5.3.19.3.31.49.39.62.51.65,1.02,1.29,1.51,1.92,2.2,2.84,4.37,5.7,6.52,8.57,1.09,1.45,2.18,2.9,3.28,4.35.16.21.28.38.39.52.11.14.25.31.43.53,1.98,2.47,3.98,4.92,6.09,7.29.62.69,1.24,1.37,1.87,2.05,2.09,1.51,4.18,3.02,6.28,4.51-5.96-8.64-10.47-18.16-12.53-28.53,8.96.85,18.33,2.47,27.22,5.29,12.4,3.94,26.15,14.11,38.51,25.32.29,4.66.33,9.44.08,14.3-.25,4.81-1.63,9.27-3.94,13.4.93.43,1.85.86,2.79,1.28.38.14,3.16,1.32,3.41,1.42,1.16.45,2.32.89,3.48,1.32,3.2,1.18,6.44,2.27,9.7,3.26,6.57,1.99,13.29,3.61,20.09,4.6.26.02.57.05.96.08,1.84.15,3.67.33,5.52.42,3.08.16,6.16.2,9.24.1,1.86-.06,3.71-.17,5.56-.33.3-.03,3.78-.55,3.7-.49,2.52-.46,5.02-.97,7.51-1.57,5.77-1.39,11.49-3.03,17.14-4.86,6.38-2.06,12.68-4.37,18.91-6.86.2-.08,3.09-1.27,3.37-1.38.7-.3,1.4-.6,2.1-.91,3.04-1.33,6.06-2.71,9.06-4.13,9.42-4.46,18.67-9.26,27.52-14.75.73-.47,1.46-.94,2.19-1.41,2.9-2.27,5.81-4.54,8.74-6.78,4.03-3.08,8.1-5.81,12.26-8.33,3.21-2.57,6.4-5.17,9.57-7.8,10.31-8.57,20.31-17.42,31.6-24.73.07-.04.13-.09.19-.13,2.23-2.89,5.1-5.35,8.08-7.19.66-.66,1.32-1.32,1.96-2,.78-.81,1.49-1.7,2.27-2.5.06-.06.1-.1.16-.15.01-.01.01-.02.03-.04,1.59-2.15,3.23-4.27,4.98-6.29.32-.45.63-.9.96-1.35.02-.04.05-.09.07-.13,0,0,.01,0,.02.01.97-1.32,1.98-2.64,3.03-3.96,1.28-1.61,2.87-2.84,4.62-3.74.6-.6,1.2-1.19,1.81-1.78-14.93-2.67-28.46-7.11-38.98-14.04-2.35-4.96-4.37-10.02-6.04-15.13,16.48-8.47,35.73-14.59,53.32-18.93,4.42,9.56,8.59,19.56,12.25,29.58.06-.07.13-.13.19-.2.75-.85,1.46-1.73,2.19-2.59.32-.39.55-.66.71-.84,1.75-2.24,3.46-4.52,5.21-6.77-5.56-6.67-11.09-13.47-16.45-20.17,7.37-1.73,14.38-3.15,20.68-4.3,2.53,1.87,5.17,3.82,7.85,5.82,3.3-5.35,7.2-10.36,11.5-15.07,2.77-7.48,7.49-13.84,12.19-20.34-7.84-9.79-15.89-20.26-23.52-30.92,10.56,2.2,20.85,4.58,30.59,6.97,1.55,1.52,3.19,3.03,4.88,4.55,1.13-2.01,2.26-4.02,3.4-6.01,2.78-4.86,5.82-9.58,8.93-14.26-5.63.89-11.49,1.63-17.55,2.17-17.51-17.29-23.97-36.74-5.26-56.59,2.95,0,5.86.03,8.73.08,9.89,8.72,18.96,18.25,27.3,28.07,1.31-3.32,2.61-6.64,3.87-9.98,5.26-13.89,11.09-27.76,15.57-41.96-3.7.9-7.47,1.81-11.34,2.73-4.87.47-10.03.65-15.48.47,12.67-7.46,23.59-16.03,32.98-25.03.72-2.56,1.45-5.12,2.25-7.67.76-2.42,1.63-4.8,2.48-7.18.2-1.12.39-2.24.57-3.36-12.09,13.41-27.39,27.53-46.8,41.16-13.47-9.16-30.06-24.14-44.62-48.05-.29-.47-.55-.93-.81-1.39,3.55-2.92,7.24-5.83,11.05-8.71,39.35-6.35,64.65-17.2,64.65-17.2ZM1476.7,457.22c.02-.07.03-.14.05-.22.41-1.8.85-3.56,1.3-5.32l2.86,3.69c-1.55.68-2.96,1.3-4.2,1.85ZM1900.72,289.85c-7.96-1.5-16.33-3.11-25-4.83,8-2.27,15.94-4.32,23.66-6.08.54,3.63,1,7.27,1.34,10.9ZM1888.66,250.45c2.67,2.75,4.9,5.17,6.81,7.33.88,4.12,1.73,8.34,2.5,12.62-.21.04-.42.08-.63.12-10.72,2.13-23,6.59-35.58,11.71-20.1-4.07-41.37-8.57-62.48-13.25,28.78-19.1,74.03-34.36,89.38-18.53ZM1722.99,236.27c1.25,4.74,2.29,9.92,2.87,15.38-6.6-1.67-12.97-3.33-19.07-4.96,5.42-3.74,10.83-7.22,16.2-10.42ZM1701.43,256.52c9.45,3.82,17.83,7.72,24.6,11.61-1.42,15.14-7.6,31-22.87,44.59-3.13-18.16-3.13-37.85-1.73-56.2ZM1639.69,305.79c17.66-2.83,32.6-2.38,42.06.65,5.72,1.83,10.73,5.8,15.09,11.38-1.58,1.16-3.23,2.3-4.96,3.41-11.47,7.35-26.46,14.36-43.27,20.91-12.78.22-25.54-.43-37.49-1.53,8.68-11.91,18.32-23.62,28.58-34.82ZM1573.36,472.92c-7.55-16.21-7.31-35.9-1.36-57.11,16.43-7.04,33.22-14.18,48.98-20.77,3.37,3.76,6.31,8.17,8.7,13.36,6.5,14.14,10.91,34.21,13.47,57.68-19.25,2.88-45.92,5.85-69.78,6.84ZM1608.48,523.34c-14.74,6.36-30.27,12.55-45.4,18.27,18.15-25.9,46.66-38.55,45.4-18.27ZM1609.91,385.87c3.72,2.26,7.17,4.98,10.25,8.25l-47.99,21.11c1-3.5,2.15-7.04,3.44-10.62,11.61-6.83,23.09-13.07,34.3-18.74ZM1579.59,325.76c-.03,3.45-.14,7.05-.32,10.76-5.31-.87-10.11-1.74-14.29-2.55,4.84-2.97,9.72-5.71,14.61-8.21ZM1566.16,410.28c-.95,2.98-1.95,5.95-3.01,8.91l-31.06,13.66c11.35-8.11,22.76-15.63,34.07-22.57ZM1525.39,365.71c-.37,4.16-.98,8.47-1.79,12.87-3.98.92-7.85,1.79-11.57,2.62,4.24-5.5,8.71-10.66,13.36-15.49ZM1505.81,389.76c5.29-1.83,10.86-3.61,16.61-5.23-4.73,21.85-13.44,44.89-19.76,60.06-7.68-6.91-13.26-12.93-16.82-17.09,5.48-13.92,12.25-26.47,19.98-37.74ZM1489.38,449.63c1.22.12,2.38.28,3.48.48l-1.77.78c-.57-.42-1.14-.84-1.71-1.26ZM1497.87,455.66c-2.27-1.54-4.54-3.14-6.77-4.77.58-.26,1.18-.52,1.78-.78,2.49.46,4.67,1.13,6.58,1.96-.57,1.31-1.1,2.51-1.58,3.58ZM1500.35,457.31c1.12-.93,2.24-1.85,3.37-2.77,3.15,2.35,5.19,5.37,6.47,8.74-3.25-1.8-6.55-3.81-9.84-5.97ZM1536.55,617.09c-7.72,7.69-15.41,15.15-22.7,22.11,1.44-31.86,5.64-57.62,8.33-71.4l15.81-1.8c-.19,17.5-.82,36.11-1.44,51.1ZM1504.45,562.52c10.14-14.69,20.51-28.24,29.2-36.48,2.64,7.06,4.27,14.25,4.35,21.29.01,1.15.02,2.33.03,3.51-12.25,4.4-23.7,8.35-33.58,11.68ZM1536.19,469.59c-10.59-6.52-19.6-13.19-27.07-19.41,7.4-5.9,14.87-11.52,22.36-16.89,9.95-4.32,20.59-8.92,31.51-13.61-6.55,18.06-15.33,35.32-26.79,49.9ZM1549.58,572.69c.52-2.8,1.22-5.56,2.07-8.26l34.11-3.89c3.76-3.85,7.4-7.48,10.93-10.91-12.32,17.64-33.12,40.25-54.42,61.73,2.08-10.75,4.55-23.72,7.31-38.67ZM1566.88,664.98c5.1,8.16,9.01,18.18,11.33,29.35-6.53-7.9-10.13-17.94-11.33-29.35ZM1601.32,746.93c-.26-5.54-.46-10.87-.59-16.02,2.28,2.49,4.4,4.86,6.31,7.05-1.85,3.31-3.76,6.31-5.72,8.97ZM1609.41,733.51c-2.34-3.29-5.25-7.19-8.84-11.8-.91-88.96,18.92-116.84,40.58-118.58-5.87,52.14-16.94,101.15-31.74,130.39ZM1571.93,619.58c8.11-29.37,24.39-60.93,43.43-87.1,6.02-5.18,11.63-9.64,16.87-13.44,4.73,1.93,9.29,4.22,13.62,6.89-.11,14.96-.73,30.36-1.82,45.78-24.74,18.68-51.04,35.73-72.1,47.87ZM1654.03,720.89c-1.9,2.47-3.79,4.88-5.64,7.21-4.2-15.02-6.1-36.09-1.38-65.08,2.95-18.14,6.36-37.4,11.24-56.5,8.09,3.63,15.72,9.71,21.87,16.31-3.9,34.35-15.15,69.86-26.09,98.05ZM1698.73,608.47c1.05-2.18,2.33-4.28,3.78-6.31-.1,2.77-.2,5.43-.27,7.93-1.25-.45-2.42-.99-3.51-1.62ZM1701.03,549.97c.13-2.47.47-4.79,1-6.98,1.13,9.85,1.4,20.53,1.3,30.98-2.14-4.6-2.9-12.22-2.3-24ZM1719.5,707.11c-1.63,1.28-3.33,2.56-5.09,3.83-5.16-14.57-10.22-30.51-13.86-45.77,4.68-2.02,9.69-2.41,14.96-.57,15.97,5.6,12.67,23.86,4,42.51ZM1703.43,538.61c1.02-2.55,2.34-4.88,3.95-7.01,10.72,4.62,20.42,9.23,28.55,13.46,1.43,8.45,2.53,17.23,3.37,26.1-14.35,5.99-24.66,10.44-30.96,7.91-3.14-14.68-4.98-28.46-4.91-40.47ZM1716.78,611.42c-1.94-6.42-3.73-12.8-5.32-19.06,7.75-6.87,17.63-12.69,28.18-17.52.87,10.09,1.4,20.24,1.69,30.1-3.87,1.17-7.8,2.39-11.81,3.67-4.67,1.49-8.9,2.4-12.74,2.81ZM1739.55,675c-2.08-5.13-4.15-10.38-6.2-15.7-.09-9.5,2.93-17.91,8.17-25.37-.26,17.01-1.11,31.56-1.97,41.07ZM1742.78,549.16c4.27,3.41,8.38,8.78,12.31,15.67-2.46.92-4.83,1.85-7.12,2.77-1.89-5.92-3.64-12.1-5.2-18.44ZM1749.04,570.84c2.59-1.02,5.18-1.98,7.78-2.88,4.31,8.14,8.4,18.06,12.25,29.15-2.69.7-5.42,1.44-8.2,2.2-4.23-8.12-8.26-17.82-11.83-28.46ZM1776.38,620.46c-2.75-2.18-5.54-5.3-8.32-9.2,1.56-.9,3.16-1.78,4.79-2.63,1.2,3.85,2.38,7.8,3.53,11.83ZM1828.6,584.44c-3.13-3.94-6.17-7.83-9.11-11.62,2.01,3.92,4.01,7.97,5.99,12.13-15.28,2.53-33.52,6.24-54.49,11.66-2.36-10.92-2.97-21.95-1.45-32.68,15.66-4.49,29.81-6.87,37.65-7.28,3.78,5.08,7.93,10.52,12.3,16.17-2.94-5.73-5.88-11.16-8.75-16.2.7.04,1.29.1,1.75.2,3.13.69,17.38,10.56,36.75,24.78-6.06.69-12.94,1.61-20.63,2.83ZM1830.12,515.9c-9.86-1.17-19.56-2.87-28.84-5.19,8.37-7.25,15.48-12.62,21.62-16.37,1.95,6.84,4.31,14.03,7.22,21.56ZM1825.38,463.15c14.5-1.55,28.58-2.43,42.01-2.82-11.06,5.73-23.07,11.21-36.08,16.35-2.31-4.67-4.31-9.2-5.93-13.53ZM1830.85,517.77c4.26,10.75,9.64,22.16,16.52,34.17-17.92-11.84-35.55-24.4-50.97-36.92.58-.52,1.15-1.03,1.71-1.53,10.7,1,21.71,2.48,32.74,4.28ZM1825,542.66c4.59,3.26,9.24,6.64,13.92,10.11-10.87-1.14-21.09-1.17-30.66-.41-8.59-14.59-16.24-25.16-20.53-28.5,1.02-1.2,2.1-2.38,3.21-3.54,10.63,6.27,22.14,13.9,34.05,22.35ZM1804.27,552.71c-12.48,1.29-23.82,3.87-34.02,6.95,2.35-11.95,7.47-23.45,15.91-33.92,2.26,4.67,8.93,14.5,18.1,26.96ZM1879.05,517.48c-7.44.37-15.06.47-22.73.28-6.99-10.03-13.5-20.11-19-29.81,17.68-4.16,25.91,10.8,41.73,29.53ZM1850.08,454.88c-7.37.96-16.23,2.57-26.01,4.57-2.09-6.29-3.32-12.11-3.41-17.25-.12-6.27,2.34-13.02,6.72-20.04,19.93,5.78,37.73,15.5,53.64,27.48-11.26,2.21-21.87,4.05-30.94,5.23ZM1883.36,426.36c.9,3.48,1.65,6.57,2.28,9.32-7.86-1.83-16.18-4.37-24.95-7.74-9.93-3.81-18.71-8.98-26.48-15.14,4.36-5.27,9.6-10.63,15.48-16,18.46,9.82,31.21,20.08,33.67,29.56ZM1801.32,349.27c1.09,14.06.82,30.46-1.55,47.46-.14,1.62-.3,3.25-.5,4.86-1.13,9.42-3.22,18.35-6.2,27.05,10.94,3.7,19.2,9.83,20.34,17.79.66,4.56,1.36,9.49,2.22,14.78-13.38,2.86-28.06,6.25-42.76,9.56-.37.54-.74,1.07-1.11,1.6,5.13-1.45,10.49-2.71,16.08-3.76,9.54-1.78,18.99-3.23,28.29-4.39.91,5.3,1.99,10.95,3.36,16.91-14.09,5.08-29.29,9.76-45.71,13.89-3.08-3.02-5.97-6.02-8.61-8.97-.31-.35-.6-.69-.9-1.04-.52.73-1.06,1.44-1.64,2.16-6.67,8.23-15.74,13.56-25.34,17.69-9.34,5.69-19.89,10.28-31.82,13.44-6.24,2.22-12.56,3.62-19.59,4.1-.4.03-.79.02-1.18.02-1.25.22-2.51.41-3.79.54-11.64,1.23-23.41-3.61-30.56-12.86-4.65-6.02-7.16-13.15-6.84-20.85.07-1.68.26-3.36.49-5.03-.08-12.26,2.64-26.54,6.93-41.34-7.62-17.18-14.21-37.05-15.32-53.92,16.37-6.77,30.99-12.65,42.08-16.84.78-1.45,1.56-2.9,2.35-4.34l-44.52,19.58c-.23-5.08.07-9.86,1.02-14.18,18.69-8.38,36.16-15.11,51.66-20.4,4.39-8.39,8.45-16.83,14.7-23.9,20.24-28.76,37.82-32.39,52.91-30.04,10.08-.59,20.24,1.4,28.54,7.16.76.07,1.51.11,2.24.11,2.67,0,5.33,3.12,7.68,8.61,28.89-4.88,70.89-2.99,106.51.25-1.19,10.54-4.25,20.21-10.16,28.09-6.75,1.65-13.98,2.87-21.74,3.55-29.28,2.58-51.26,3.29-67.57,2.68Z"/>
    </g>
  </g>
</svg>