<?xml version="1.0" encoding="UTF-8"?>
<svg id="fond" xmlns="http://www.w3.org/2000/svg" viewBox="0 0 2892.4 2070.29">
  <defs>
    <style>
      .cls-1 {
        fill: none;
      }

      .cls-2 {
        fill: #f4f4f4;
        opacity: .78;
      }

      .cls-3 {
        fill: #205b13;
      }
    </style>
  </defs>
  <g id="Calque_28" data-name="Calque 28">
    <g>
      <path class="cls-1" d="M1589.72,473.5c-1.21,1.37-2.41,2.8-3.57,4.28-.31,1.11-.61,2.2-.89,3.29,1.19-.45,2.39-.91,3.59-1.37.32-2.06.59-4.13.87-6.19Z"/>
      <path class="cls-1" d="M1682.12,302.67c-.25.1-.5.2-.75.3-4,5.86-8.27,12.19-12.72,18.9l2.94-1.29c3.26-6.11,6.71-12.14,10.53-17.91Z"/>
      <path class="cls-1" d="M1634.15,377.64c3.1-4.05,6.3-8.02,9.55-11.95,2.64-3.96,5.33-7.92,8.16-11.78-.49-1.27-.99-2.51-1.51-3.7-6.27,9.97-12.6,20.34-18.74,30.84.84-1.14,1.69-2.28,2.54-3.4Z"/>
      <path class="cls-1" d="M1669.02,325.45c.37-.73.75-1.45,1.13-2.17-1.1.45-2.21.9-3.34,1.36-3.22,4.89-6.53,9.96-9.87,15.17.35,1.97.77,3.98,1.22,5.99,3.87-6.65,7.32-13.52,10.85-20.35Z"/>
      <path class="cls-1" d="M1582.25,503.5l-.25.03c.05,8.61,2.16,15.55,6.83,20.27.66-.72,1.31-1.45,1.96-2.17-5.22-4.21-8.41-11.25-8.54-18.13Z"/>
      <path class="cls-1" d="M1723.73,478.23c-.1.22-.2.44-.29.67,0,.63.02,1.28.03,1.91,2.87-2.27,5.7-4.59,8.47-6.94-.59-.26-1.2-.52-1.8-.79-2.11,1.74-4.25,3.46-6.4,5.15Z"/>
      <path class="cls-1" d="M1612.13,525.42c-2.56.85-5.25,1.22-8,1.1-.56,1.24-1.11,2.49-1.64,3.73,6.97,1.11,15.9.46,27.1-2.25,7.28-1.76,14.37-3.89,21.28-6.34.21-.15.43-.31.64-.47-12.44,4.62-26.34,7.27-39.37,4.22Z"/>
      <path class="cls-1" d="M1716.83,258.11c-.38-.49-.78-.95-1.18-1.42-2.03,1.89-4.01,3.92-5.95,6.17,0,0-.01.02-.02.03.74-.45,1.47-.91,2.18-1.37,1.74-1.11,3.38-2.25,4.96-3.41Z"/>
      <path class="cls-1" d="M1729.27,246.9c-2.22,1.19-4.36,2.53-6.45,3.99.11.71.22,1.42.34,2.12,2.24-1.99,4.25-4.03,6.11-6.11Z"/>
      <path class="cls-1" d="M1845.31,256.4c3.79,5.66,5.64,11.9,6.13,18.37,0-8.14-1.11-16.07-4.18-22.62-1.21.03-2.4.08-3.59.12.69,1.32,1.23,2.7,1.64,4.13Z"/>
      <path class="cls-1" d="M1942.54,438.75c.65-2.1,1.28-4.21,1.91-6.32-.09-.11-.18-.22-.27-.33-.54,2.31-1.12,4.6-1.71,6.88.02-.08.05-.15.07-.23Z"/>
      <path class="cls-1" d="M1897.63,543.05c-4.88,7.79-9.96,15.29-15.21,22.51.36.42.72.82,1.08,1.24,5.06-7.7,9.84-15.57,14.29-23.63-.06-.04-.11-.08-.17-.13Z"/>
      <path class="cls-1" d="M1728.83,185.6c-.68.46-1.35.91-2.03,1.38,1.25.33,2.52.67,3.79,1.01,4.53-1.67,9.18-3.27,13.94-4.79-.14-.7-.29-1.39-.44-2.08-5.11,1.42-10.19,2.91-15.25,4.49Z"/>
      <path class="cls-3" d="M1910.78,470.51c-9.74-2.4-20.03-4.77-30.59-6.97,11.26,15.73,23.45,31.1,34.48,44.37,3.6-8.27,7.22-16.52,10.84-24.78-5.55-4.12-10.41-8.38-14.73-12.62Z"/>
      <path class="cls-3" d="M1872.17,524.05c-6.3,1.15-13.3,2.57-20.68,4.3,10.03,12.54,20.69,25.43,30.92,37.22,5.25-7.22,10.33-14.73,15.21-22.51-8.99-6.78-17.6-13.21-25.46-19Z"/>
      <path class="cls-3" d="M1755.93,485.35c-6.97-3.63-15.08-7.53-24.01-11.48-2.77,2.35-5.59,4.67-8.47,6.94.12,11.56,1.91,24.64,4.88,38.55,6.31,2.53,16.61-1.92,30.96-7.91-.84-8.87-1.94-17.66-3.37-26.1Z"/>
      <path class="cls-3" d="M1847.38,362.45c-4.39,7.02-6.84,13.77-6.72,20.04.1,5.14,1.32,10.96,3.41,17.25,9.78-2,18.64-3.61,26.01-4.57,9.07-1.18,19.68-3.02,30.94-5.23-15.91-11.98-33.71-21.7-53.64-27.48Z"/>
      <path class="cls-3" d="M1735.5,604.89c-5.26-1.84-10.28-1.45-14.96.57,3.65,15.26,8.7,31.2,13.86,45.77,1.76-1.27,3.46-2.55,5.09-3.83,8.67-18.65,11.97-36.91-4-42.51Z"/>
      <path class="cls-3" d="M1629.58,528c-11.19,2.71-20.13,3.36-27.1,2.25-4.28,9.93-7.88,19.89-10.56,29.61,17.35-10,38.27-23.36,58.94-38.2-6.91,2.44-14,4.57-21.28,6.34Z"/>
      <path class="cls-3" d="M1847.26,252.15c3.07,6.55,4.19,14.48,4.18,22.62.36,4.81-.03,9.74-.95,14.64,11.14-.43,23.87-1.25,38.4-2.53,7.76-.68,15-1.9,21.74-3.55,5.91-7.88,8.97-17.56,10.16-28.09-23.6-2.15-50-3.7-73.54-3.08Z"/>
      <path class="cls-3" d="M1919.39,219.23c-7.72,1.75-15.66,3.81-23.66,6.08,8.67,1.71,17.04,3.33,25,4.83-.34-3.63-.8-7.27-1.34-10.9Z"/>
      <path class="cls-3" d="M1903.36,366.64c-2.46-9.48-15.21-19.74-33.67-29.56-5.88,5.37-11.12,10.73-15.48,16,7.77,6.16,16.55,11.33,26.48,15.14,8.78,3.37,17.09,5.91,24.95,7.74-.63-2.76-1.38-5.85-2.28-9.32Z"/>
      <path class="cls-3" d="M1718.73,548.75c1.09.62,2.26,1.17,3.51,1.62.07-2.51.16-5.16.27-7.93-1.45,2.03-2.73,4.14-3.78,6.31Z"/>
      <path class="cls-3" d="M1678.25,546.81c-4.88,19.1-8.29,38.35-11.24,56.5-4.71,28.98-2.82,50.06,1.38,65.08,1.84-2.33,3.73-4.74,5.64-7.21,10.94-28.2,22.19-63.71,26.09-98.05-6.15-6.6-13.78-12.68-21.87-16.31Z"/>
      <path class="cls-3" d="M1857.31,428.23c5.5,9.7,12.01,19.78,19,29.81,7.68.19,15.3.09,22.73-.28-15.83-18.73-24.06-33.69-41.73-29.53Z"/>
      <path class="cls-3" d="M1850.85,458.05c-11.02-1.8-22.04-3.28-32.74-4.28-.57.5-1.14,1.01-1.71,1.53,15.41,12.51,33.05,25.08,50.97,36.92-6.88-12.01-12.26-23.42-16.52-34.17Z"/>
      <path class="cls-3" d="M1845,482.94c-11.91-8.45-23.42-16.08-34.05-22.35-1.11,1.17-2.19,2.35-3.21,3.54,4.28,3.34,11.94,13.91,20.53,28.5,9.57-.76,19.79-.73,30.66.41-4.68-3.47-9.33-6.85-13.92-10.11Z"/>
      <path class="cls-3" d="M1701.74,246.73c-9.45-3.03-24.39-3.49-42.06-.65-10.26,11.2-19.9,22.91-28.58,34.82,11.95,1.1,24.71,1.75,37.49,1.53,15.77-6.14,29.93-12.69,41.09-19.54,0-.01.02-.03.02-.03,1.94-2.24,3.92-4.28,5.95-6.17-4.08-4.82-8.7-8.29-13.92-9.96Z"/>
      <path class="cls-3" d="M1759.64,515.12c-10.54,4.83-20.42,10.65-28.18,17.52,1.6,6.27,3.39,12.64,5.32,19.06,3.84-.41,8.07-1.32,12.74-2.81,4.01-1.28,7.94-2.5,11.81-3.67-.29-9.86-.82-20.02-1.69-30.1Z"/>
      <path class="cls-3" d="M1806.17,466.04c-8.44,10.47-13.56,21.97-15.91,33.92,10.2-3.08,21.54-5.66,34.02-6.95-9.17-12.46-15.84-22.3-18.1-26.96Z"/>
      <path class="cls-3" d="M1583.08,481.9c.72-.27,1.45-.55,2.18-.83.28-1.08.58-2.18.89-3.29-1.05,1.33-2.08,2.7-3.07,4.12Z"/>
      <path class="cls-3" d="M1845.38,403.44c1.62,4.33,3.62,8.86,5.93,13.53,13.02-5.13,25.03-10.62,36.08-16.35-13.44.39-27.52,1.27-42.01,2.82Z"/>
      <path class="cls-3" d="M1620.73,671.2c.13,5.15.32,10.49.59,16.02,1.96-2.66,3.87-5.66,5.72-8.97-1.91-2.19-4.03-4.56-6.31-7.05Z"/>
      <path class="cls-3" d="M1656.55,313.45c-.94,4.33-1.25,9.1-1.02,14.18l13.11-5.77c4.44-6.71,8.72-13.04,12.72-18.9-7.97,3.17-16.26,6.65-24.81,10.48Z"/>
      <path class="cls-3" d="M1552.09,373.14l31.06-13.66c1.06-2.95,2.06-5.92,3.01-8.91-11.32,6.94-22.72,14.46-34.07,22.57Z"/>
      <path class="cls-3" d="M1600.38,650.82c-12.37-11.21-26.11-21.39-38.51-25.32-8.89-2.82-18.26-4.44-27.22-5.29,5.93,29.76,31.92,52.62,54.83,67.45,6.49-6.5,10.53-13.97,10.98-22.54.26-4.86.22-9.64-.08-14.3Z"/>
      <path class="cls-3" d="M1655.63,329.23c.22,3.42.68,6.96,1.32,10.58,3.35-5.21,6.65-10.28,9.87-15.17-3.62,1.48-7.35,3.01-11.19,4.6Z"/>
      <path class="cls-3" d="M1649.68,348.68c-2.38-5.19-5.32-9.6-8.7-13.36-15.76,6.59-32.54,13.73-48.98,20.77-5.94,21.21-6.19,40.9,1.36,57.11,6.85-.28,13.93-.73,21-1.29.1-.19.21-.39.31-.58,3.98-10.82,10.07-20.93,16.92-30.28,6.14-10.5,12.47-20.86,18.74-30.84-.22-.51-.44-1.03-.67-1.52Z"/>
      <path class="cls-3" d="M1836.15,404.51c-9.3,1.17-18.75,2.61-28.29,4.39-4.87.91-9.55,1.99-14.07,3.21-3.22,4.3-6.56,8.51-10.02,12.6.47.54.93,1.08,1.42,1.62,2.65,2.95,5.54,5.95,8.61,8.97,16.42-4.13,31.61-8.81,45.71-13.89-1.37-5.96-2.45-11.6-3.36-16.91Z"/>
      <path class="cls-3" d="M1629.91,326.15c-11.21,5.67-22.69,11.91-34.3,18.74-1.3,3.57-2.45,7.12-3.44,10.62l47.99-21.11c-3.08-3.26-6.52-5.99-10.25-8.25Z"/>
      <path class="cls-3" d="M1620.57,661.99c3.59,4.62,6.5,8.52,8.84,11.8,14.8-29.23,25.87-78.25,31.74-130.39-21.66,1.74-41.49,29.63-40.58,118.58Z"/>
      <path class="cls-3" d="M1915.47,198.07c-1.91-2.16-4.14-4.58-6.81-7.33-15.36-15.83-60.6-.57-89.38,18.53,21.11,4.68,42.38,9.18,62.48,13.25,12.58-5.11,24.86-9.57,35.58-11.71.21-.04.42-.08.63-.12-.77-4.28-1.62-8.5-2.5-12.62Z"/>
      <path class="cls-3" d="M1913.9,400.46c-2.87-.05-5.78-.08-8.73-.08-18.7,19.85-12.24,39.29,5.26,56.59,9.75-.87,19.02-2.22,27.53-3.97,1.55-4.65,3.06-9.32,4.51-14.01.58-2.28,1.16-4.57,1.71-6.88-9.15-11.09-19.2-21.87-30.28-31.64Z"/>
      <path class="cls-3" d="M1721.43,196.81c-1.34,17.64-1.39,36.51,1.39,54.08,2.09-1.47,4.24-2.8,6.45-3.99,10.84-12.11,15.54-25.56,16.75-38.48-6.77-3.89-15.15-7.79-24.6-11.61Z"/>
      <path class="cls-3" d="M1833.42,386.72c-.93-6.48-6.59-11.77-14.57-15.5-1.95,3.96-4.01,7.87-6.15,11.74-5.3,9.57-11.28,18.81-17.8,27.64,14.02-3.17,27.97-6.38,40.75-9.1-.86-5.29-1.57-10.23-2.22-14.78Z"/>
      <path class="cls-3" d="M1857.43,169.49c-15.32-1.39-30.7-1.53-46.04-.7-18.76,2.02-38.13,5.99-56.47,11.25,2.56,15.41,17.71,20.35,35.56,20.34,2.64-6.12,3.99-10.83,4.64-14.34.02-5.41.18-8.51.18-8.51,0,0,.93,2.49-.18,8.51-.01,3.72.05,8.55.28,14.21,19.98-.95,42.12-7.24,53.44-11.63,7.02-2.72,16.84-8.61,26.6-15.2-5.95-1.53-11.96-2.84-18.02-3.93Z"/>
      <path class="cls-3" d="M1529.05,509.57l-9.96,1.14c-3.88,5.81-7.66,11.67-11.24,17.35-.85,6.55-1.64,13.23-2.37,20.05-.01.1-.02.2-.03.31.02,1.12.02,2.24.06,3.36.8,5.95,1.6,11.9,2.4,17.85.3,5.91-.32,11.92-1.53,17.77,7.62-1.03,14.94-2.16,21.77-3.38,8.74-28.67,3.93-60.23.9-74.44Z"/>
      <path class="cls-3" d="M1722.04,483.28c-.53,2.19-.88,4.51-1,6.98-.6,11.77.17,19.4,2.3,24,.1-10.45-.17-21.12-1.3-30.98Z"/>
      <path class="cls-3" d="M1842.89,434.63c-6.14,3.75-13.25,9.12-21.62,16.37,9.28,2.31,18.99,4.02,28.84,5.19-2.91-7.52-5.27-14.72-7.22-21.56Z"/>
      <path class="cls-3" d="M1847.4,529.34c-17.59,4.35-36.84,10.47-53.32,18.93,1.67,5.11,3.69,10.17,6.04,15.13,16.72,11.03,41.03,15.76,66.49,17.07-4.66-16.92-11.61-34.68-19.21-51.13Z"/>
      <path class="cls-3" d="M1526.65,666.17c-.12.05-.23.11-.34.16.39.63.78,1.27,1.18,1.9,2.96,3.2,6.07,6.24,9.32,9.14.4.27.81.53,1.21.81-1.61-8.28-5.17-14.43-11.37-12.01Z"/>
      <path class="cls-3" d="M1744.52,183.19c-4.75,1.52-9.41,3.12-13.94,4.79,4.94,1.31,10.04,2.63,15.28,3.96-.32-3.01-.79-5.93-1.35-8.75Z"/>
      <path class="cls-3" d="M1955.66,302.37s-.06,0-.09-.01c0,0-25.3,10.85-64.65,17.2-3.81,2.88-7.5,5.79-11.05,8.71.26.46.53.92.81,1.39,14.55,23.91,31.14,38.89,44.62,48.05,12.23-8.59,22.81-17.37,32.01-26.04-.28-16.47-.67-32.9-1.65-49.3Z"/>
      <path class="cls-3" d="M1957.51,363.1c-7.12,5.94-14.99,11.58-23.68,16.7,5.45.18,10.61,0,15.48-.47,2.06-.49,4.1-.98,6.12-1.47.76-4.29,1.47-8.47,2.12-12.54-.02-.74-.03-1.48-.05-2.23Z"/>
      <path class="cls-3" d="M1919.52,299.5c-5.63,3.69-11.24,7.5-16.71,11.37,28.65-5.08,52.77-8.51,52.77-8.51-11.19-1.45-24.02-2.69-36.06-2.86Z"/>
      <path class="cls-3" d="M1792.85,548.91c-1.63.85-3.22,1.73-4.79,2.63,2.77,3.9,5.57,7.02,8.32,9.2-1.15-4.03-2.33-7.98-3.53-11.83Z"/>
      <path class="cls-3" d="M1558.01,487.62c-.08-7.04-1.71-14.22-4.35-21.29-8.69,8.23-19.06,21.78-29.2,36.48,9.88-3.33,21.33-7.28,33.58-11.68,0-1.18-.02-2.35-.03-3.51Z"/>
      <path class="cls-3" d="M1586.88,605.27c1.2,11.41,4.79,21.44,11.33,29.35-2.32-11.16-6.23-21.19-11.33-29.35Z"/>
      <path class="cls-3" d="M1551.47,373.58c-1.85,1.33-3.7,2.68-5.55,4.05-2.24,6.98-4.31,14.01-6.28,21.07,5.01,3.7,10.52,7.46,16.55,11.17,11.46-14.58,20.24-31.84,26.79-49.9-10.91,4.69-21.55,9.29-31.51,13.61Z"/>
      <path class="cls-3" d="M1813.41,633.87l-39.6,14.96c2.17,4.89,4.26,9.51,6.25,13.84,5.49-3.17,11.15-6.02,16.89-8.71,5.78-4.6,11.63-9.46,17.51-14.59-.35-1.82-.7-3.66-1.05-5.5Z"/>
      <path class="cls-3" d="M1839.49,513.1c-4.38-5.65-8.52-11.09-12.3-16.17-7.84.41-21.99,2.79-37.65,7.28-1.52,10.73-.91,21.76,1.45,32.68,20.97-5.42,39.21-9.13,54.49-11.66-1.97-4.15-3.98-8.21-5.99-12.13Z"/>
      <path class="cls-3" d="M1542.18,508.08c-2.68,13.79-6.89,39.55-8.33,71.4,7.29-6.96,14.98-14.42,22.7-22.11.62-14.99,1.25-33.6,1.44-51.1l-15.81,1.8Z"/>
      <path class="cls-3" d="M1832.48,497.1c-.45-.1-1.05-.16-1.75-.2,2.87,5.04,5.82,10.47,8.75,16.2,2.94,3.8,5.99,7.68,9.11,11.62,7.68-1.22,14.57-2.14,20.63-2.83-19.37-14.22-33.62-24.09-36.75-24.78Z"/>
      <path class="cls-3" d="M1582,503.53l-10.35,1.18c-.85,2.7-1.55,5.45-2.07,8.26-2.76,14.96-5.23,27.93-7.31,38.67,9.16-9.24,18.22-18.68,26.56-27.85-4.67-4.72-6.78-11.66-6.83-20.27Z"/>
      <path class="cls-3" d="M1762.78,489.45c1.55,6.34,3.3,12.52,5.2,18.44,2.29-.92,4.66-1.85,7.12-2.77-3.93-6.89-8.04-12.26-12.31-15.67Z"/>
      <path class="cls-3" d="M1753.35,599.58c2.05,5.32,4.12,10.57,6.2,15.7.86-9.51,1.71-24.06,1.97-41.07-5.24,7.45-8.26,15.87-8.17,25.37Z"/>
      <path class="cls-3" d="M1776.82,508.25c-2.59.9-5.19,1.87-7.78,2.88,3.56,10.64,7.59,20.34,11.83,28.46,2.78-.76,5.51-1.49,8.2-2.2-3.85-11.08-7.94-21.01-12.25-29.15Z"/>
      <path class="cls-3" d="M1649.19,716.54s.81-1.52,2.22-4.31c-10.32,2.39-20.92,4.24-29.1,4.3,0,.15,0,.29,0,.43,1.27.36,2.54.71,3.82,1.05,15.97,1.31,31.93,1.69,47.91.39,8.35-1.53,16.63-3.4,24.86-5.5,1.32-.34,2.65-.64,3.97-.91.58-.34,1.17-.68,1.75-1.02l-55.42,5.56Z"/>
      <path class="cls-3" d="M1769.42,650.48l-3.2,1.21c2.09,5.75,4.22,10.9,6.33,15.54,1.26-.8,2.53-1.59,3.8-2.38.35-.21.7-.41,1.05-.62l-7.98-13.75Z"/>
      <path class="cls-3" d="M1795.31,177.53s-.16,3.1-.18,8.51c1.12-6.02.18-8.51.18-8.51Z"/>
      <path class="cls-2" d="M1795.31,177.53s-.16,3.1-.18,8.51c1.12-6.02.18-8.51.18-8.51Z"/>
      <path class="cls-2" d="M1728.83,185.6c-3.26,1.02-6.52,2.07-9.76,3.16-3.78,2.92-7.57,5.85-11.35,8.77-8.04,3.45-16.09,6.89-24.13,10.34-5.6,3.25-11.39,5.8-17.36,7.68-2.35,2.76-4.86,5.36-7.63,7.64-7.42,6.11-15.04,12.43-23.37,17.37-2.03,2.55-4.15,5-6.48,7.23-3.48,3.34-9.03,7.75-13.92,11.23-4.09,6.11-7.99,12.36-11.9,18.6,27.96-32.63,59.21-54.9,90.69-72.8,10.58-6.02,23.2-11.74,36.99-16.83-1.27-.34-2.54-.67-3.79-1.01.68-.47,1.35-.92,2.03-1.38Z"/>
      <path class="cls-2" d="M1744.07,181.11c.15.69.3,1.38.44,2.08,3.42-1.1,6.9-2.15,10.41-3.16-.09-.57-.17-1.15-.23-1.75-3.55.9-7.09,1.85-10.62,2.83Z"/>
      <path class="cls-2" d="M1913.06,189.77c-2.68-1.65-5.18-3.47-7.54-5.44-2.7-1.44-5.41-2.85-8.16-4.18-.84-.3-1.68-.59-2.52-.88,2.29,1.31,4.46,2.73,6.47,4.29,6.73,5.21,13.56,9.88,20.11,14.83-2.67-2.98-5.45-5.86-8.36-8.61Z"/>
      <path class="cls-2" d="M1897.63,543.05c.06.04.11.08.17.13.7-1.27,1.4-2.54,2.08-3.82-.75,1.23-1.49,2.48-2.25,3.7Z"/>
      <path class="cls-2" d="M1949.98,414.56c.64-4.22,1.34-8.41,1.99-12.53,1.3-8.26,3.31-16.37,5.06-24.54-.53.13-1.06.26-1.6.39-2.87,16.11-6.5,33.78-11.01,53.21-.08.34-.16.68-.24,1.03.09.11.18.22.27.33,1.77-5.98,3.51-11.97,5.53-17.88Z"/>
      <path class="cls-2" d="M1817.63,644.71c1.42-.63,2.81-1.31,4.19-1.99,4.02-3.99,7.93-8.08,11.69-12.3,11.84-13.28,23.18-27.16,34.22-41.18,5.48-7.33,10.76-14.8,15.77-22.42-.36-.41-.72-.82-1.08-1.24-21.06,29-44.71,53.51-67.95,73.8.4,2.09.78,4.16,1.17,6.22.67-.3,1.34-.59,2-.89Z"/>
      <path class="cls-2" d="M1614.47,411.9s-.07,0-.1,0c-1.89,3.58-3.73,7.14-5.51,10.69,1.33-2.11,2.71-4.18,4.14-6.22.45-1.51.94-3,1.47-4.48Z"/>
      <path class="cls-2" d="M1589.78,473.06c.63-4.63,1.39-9.05,2.44-13.38-2.4,6.3-4.46,12.36-6.07,18.11,1.16-1.48,2.36-2.91,3.57-4.28.02-.15.04-.29.06-.44Z"/>
      <path class="cls-2" d="M1585.46,492.1c.28-.4.74-1.38,1.17-2.08.4-1.36.79-2.71,1.09-4.1.45-2.06.81-4.14,1.13-6.23-1.2.46-2.39.92-3.59,1.37-2.13,8.3-3.3,15.87-3.26,22.46l.25-.03c-.07-4.07.92-8.07,3.21-11.4Z"/>
      <path class="cls-2" d="M1671.58,320.57l-2.94,1.29c-.61.92-1.22,1.84-1.83,2.77,1.13-.46,2.24-.91,3.34-1.36.47-.9.95-1.8,1.43-2.7Z"/>
      <path class="cls-2" d="M1658.11,345.91s.04-.07.06-.11c-.45-2.01-.88-4.02-1.22-5.99-2.19,3.41-4.39,6.88-6.61,10.4.52,1.19,1.02,2.44,1.51,3.7,2-2.73,4.07-5.42,6.25-8Z"/>
      <path class="cls-2" d="M1819.01,236.02c-41.09,0-68.5-.53-89.73,10.88-1.86,2.08-3.88,4.12-6.11,6.11-.12-.7-.23-1.41-.34-2.12-2.46,1.73-4.85,3.65-7.16,5.8.39.47.79.93,1.18,1.42-1.58,1.16-3.23,2.3-4.96,3.41-.71.46-1.44.91-2.18,1.37-.43.58-12.14,16.39-28.32,40.08.25-.1.5-.2.75-.3,4.69-7.08,9.94-13.77,16.09-19.73.41-.39.82-.76,1.25-1.12,12.39-18.9,28.46-35.01,51.99-37.51,1.4-.46,2.8-.88,4.2-1.29,1.57-.88,3.14-1.78,4.67-2.74,5.72-3.6,12.3-3.95,18.21-2,9.45-1.26,19.08-1.67,28.21-.97,6.26.48,12.42,1.54,18.16,3.61,3.62.21,7.2,1.15,10.35,2.81,3.84,2.03,6.62,5.04,8.44,8.55,1.19-.04,2.38-.09,3.59-.12-4.46-9.53-13.04-16.13-28.25-16.13Z"/>
      <path class="cls-2" d="M1842.23,313.89c-2.87,6.17-6.17,12.14-9.76,17.94-1.51,8.39-3.93,16.49-6.98,24.36,11.37-20.55,17.04-34.35,17.04-34.35,0,0,5.04-13.82,7.54-30.36-1.69,7.8-4.62,15.47-7.83,22.4Z"/>
      <path class="cls-2" d="M1740.8,463.9c-3.49,3.14-7.04,6.21-10.67,9.19.6.26,1.21.52,1.8.79,6.83-5.8,13.33-11.82,19.53-17.98-3.48,2.75-7.03,5.43-10.66,8.01Z"/>
      <path class="cls-2" d="M1593.71,523.57c-1.03-.55-2.01-1.2-2.93-1.94-.65.72-1.3,1.44-1.96,2.17,3.25,3.29,7.74,5.51,13.66,6.45.54-1.25,1.09-2.49,1.64-3.73-3.43-.16-6.95-1.11-10.42-2.94Z"/>
      <path class="cls-2" d="M1723.73,478.23c-8.51,6.66-17.33,12.94-26.33,18.9-13.57,8.98-27.67,16.76-42.77,22.86-1.03.42-2.08.82-3.13,1.21-.21.15-.43.31-.64.47,27.08-9.57,51.28-24.02,72.59-40.86,0-.64-.03-1.29-.03-1.91.09-.23.2-.44.29-.67Z"/>
      <path class="cls-2" d="M1503.51,597.93c.4,1.5.79,3,1.19,4.5-.2-2.13-.38-4.29-.52-6.49-.21.67-.43,1.33-.66,1.99Z"/>
      <path class="cls-2" d="M1506.05,529.58c-.04.5-.06,1-.1,1.5.63-1,1.26-2.01,1.9-3.02.71-5.52,1.47-10.94,2.26-16.27-1.52,5.89-2.91,11.81-4.06,17.79Z"/>
      <path class="cls-3" d="M1933.83,379.8c8.69-5.12,16.56-10.76,23.68-16.7-.01-.71-.04-1.42-.05-2.13-.05-3.1-.1-6.2-.15-9.3-9.19,8.68-19.78,17.46-32.01,26.04-13.47-9.16-30.06-24.14-44.62-48.05-.29-.47-.55-.93-.81-1.39,3.55-2.92,7.24-5.83,11.05-8.71,39.35-6.35,64.65-17.2,64.65-17.2,0,0-24.12,3.43-52.77,8.51,5.48-3.87,11.08-7.68,16.71-11.37,12.04.16,24.86,1.4,36.06,2.86.03,0,.06,0,.09.01-.55-9.13-1.27-18.25-2.26-27.37-1.85-11.8-4.09-23.69-6.81-35.49-.56-.93-1.12-1.87-1.68-2.81-7.55-12.74-14.77-25.7-23.12-37.93-.12-.14-.25-.26-.37-.4-6.55-4.95-13.38-9.62-20.11-14.83-2.01-1.56-4.18-2.97-6.47-4.29-6.38-2.23-12.85-4.17-19.38-5.85-9.76,6.59-19.58,12.48-26.6,15.2-11.32,4.39-33.46,10.68-53.44,11.63-.23-5.66-.29-10.49-.28-14.21-.65,3.51-2,8.22-4.64,14.34-17.85.02-33-4.93-35.56-20.34-3.51,1.01-6.98,2.06-10.41,3.16.56,2.82,1.03,5.73,1.35,8.75-5.25-1.33-10.34-2.65-15.28-3.96-13.79,5.09-26.41,10.81-36.99,16.83-31.48,17.9-62.73,40.17-90.69,72.8-4.65,7.41-9.33,14.81-14.37,21.94-13.22,18.69-25.93,37.79-35.8,58.46-2.45,6.48-4.7,13.03-6.82,19.62,1.85-1.36,3.7-2.72,5.55-4.05,9.95-4.32,20.59-8.92,31.51-13.61-6.55,18.06-15.33,35.32-26.79,49.9-6.03-3.71-11.54-7.48-16.55-11.17-4.13,14.86-7.76,29.86-11.39,44.85-3.97,16.4-7.98,32.79-12.75,48.98-1.9,6.42-3.73,12.83-5.39,19.26-.79,5.33-1.55,10.75-2.26,16.27,3.58-5.68,7.37-11.54,11.24-17.35l9.96-1.14c3.02,14.22,7.84,45.77-.9,74.44-6.83,1.22-14.16,2.34-21.77,3.38-.43,2.07-.93,4.12-1.49,6.14-.22.81-.46,1.6-.71,2.4.15,2.2.32,4.36.52,6.49,4.61,17.64,9.05,35.35,15.23,52.45,1.95,3.92,4.08,7.73,6.38,11.45.12-.05.23-.11.34-.16,6.2-2.43,9.76,3.73,11.37,12.01,15.03,10.17,31.26,18.75,47.8,26.2,11.9,4.74,24.1,9.11,36.49,12.58,0-.15,0-.29,0-.43,8.18-.06,18.78-1.92,29.1-4.3-1.41,2.79-2.22,4.31-2.22,4.31l55.42-5.56c11.31-6.71,22.41-13.75,33.42-20.94,11.54-7.53,22.87-15.45,34.52-22.81-2.11-4.63-4.24-9.79-6.33-15.54l3.2-1.21,7.98,13.75c.88-.53,1.76-1.05,2.65-1.56-1.99-4.33-4.08-8.95-6.25-13.84l39.6-14.96c.36,1.84.71,3.68,1.05,5.5,23.25-20.3,46.89-44.8,67.95-73.8-10.23-11.78-20.9-24.67-30.92-37.22,7.37-1.73,14.38-3.15,20.68-4.3,7.85,5.79,16.47,12.23,25.46,19,.76-1.22,1.5-2.46,2.25-3.7,4.22-7.9,8.12-15.99,11.63-24.3-1.49,3.54-2.99,7.08-4.48,10.63,2.53-5.94,5.09-11.87,7.66-17.78-11.03-13.27-23.22-28.64-34.48-44.37,10.56,2.2,20.85,4.58,30.59,6.97,4.32,4.24,9.18,8.5,14.73,12.62,3.08-7.02,6.15-14.05,9.18-21.09.47-1.16.91-2.32,1.37-3.48.64-1.85,1.27-3.71,1.89-5.57-8.5,1.75-17.78,3.1-27.53,3.97-17.51-17.29-23.97-36.74-5.26-56.59,2.95,0,5.86.03,8.73.08,11.08,9.77,21.12,20.55,30.28,31.64.08-.34.17-.68.24-1.03,4.51-19.43,8.14-37.1,11.01-53.21-2.02.49-4.06.98-6.12,1.47-4.87.47-10.03.65-15.48.47ZM1920.72,230.14c-7.96-1.5-16.33-3.11-25-4.83,8-2.27,15.94-4.32,23.66-6.08.54,3.63,1,7.27,1.34,10.9ZM1908.66,190.73c2.67,2.75,4.9,5.17,6.81,7.33.88,4.12,1.73,8.34,2.5,12.62-.21.04-.42.08-.63.12-10.72,2.13-23,6.59-35.58,11.71-20.1-4.07-41.37-8.57-62.48-13.25,28.78-19.1,74.03-34.36,89.38-18.53ZM1595.61,344.89c11.61-6.83,23.09-13.07,34.3-18.74,3.72,2.26,7.17,4.98,10.25,8.25l-47.99,21.11c1-3.5,2.15-7.04,3.44-10.62ZM1552.09,373.14c11.35-8.11,22.76-15.63,34.07-22.57-.95,2.98-1.95,5.95-3.01,8.91l-31.06,13.66ZM1524.45,502.81c10.14-14.69,20.51-28.24,29.2-36.48,2.64,7.06,4.27,14.25,4.35,21.29.01,1.15.02,2.33.03,3.51-12.25,4.4-23.7,8.35-33.58,11.68ZM1542.18,508.08l15.81-1.8c-.19,17.5-.82,36.11-1.44,51.1-7.72,7.69-15.41,15.15-22.7,22.11,1.44-31.86,5.64-57.62,8.33-71.4ZM1600.45,665.11c-.45,8.58-4.49,16.04-10.98,22.54-22.9-14.83-48.9-37.69-54.83-67.45,8.96.85,18.33,2.47,27.22,5.29,12.4,3.94,26.15,14.11,38.51,25.32.29,4.66.33,9.44.08,14.3ZM1586.88,605.27c5.1,8.16,9.01,18.18,11.33,29.35-6.53-7.9-10.13-17.94-11.33-29.35ZM1621.32,687.22c-.26-5.54-.46-10.87-.59-16.02,2.28,2.49,4.4,4.86,6.31,7.05-1.85,3.31-3.76,6.31-5.72,8.97ZM1629.41,673.8c-2.34-3.29-5.25-7.19-8.84-11.8-.91-88.96,18.92-116.84,40.58-118.58-5.87,52.14-16.94,101.15-31.74,130.39ZM1674.03,661.17c-1.9,2.47-3.79,4.88-5.64,7.21-4.2-15.02-6.1-36.09-1.38-65.08,2.95-18.14,6.36-37.4,11.24-56.5,8.09,3.63,15.72,9.71,21.87,16.31-3.9,34.35-15.15,69.86-26.09,98.05ZM1650.87,521.67c-20.67,14.84-41.59,28.19-58.94,38.2,2.69-9.72,6.28-19.68,10.56-29.61-5.92-.94-10.41-3.16-13.66-6.45-8.34,9.17-17.4,18.61-26.56,27.85,2.08-10.75,4.55-23.72,7.31-38.67.52-2.8,1.22-5.56,2.07-8.26l10.35-1.18c-.04-6.59,1.13-14.17,3.26-22.46-.73.28-1.46.56-2.18.83.99-1.42,2.02-2.79,3.07-4.12,1.61-5.74,3.67-11.81,6.07-18.11,1.1-4.57,2.52-9.05,4.43-13.6,3.36-7.96,7.44-15.92,12.2-23.48,1.78-3.54,3.62-7.1,5.51-10.69-7.07.56-14.15,1.01-21,1.29-7.55-16.21-7.31-35.9-1.36-57.11,16.43-7.04,33.22-14.18,48.98-20.77,3.37,3.76,6.31,8.17,8.7,13.36.23.49.45,1.01.67,1.52,2.21-3.52,4.42-6.99,6.61-10.4-.64-3.62-1.09-7.16-1.32-10.58,3.83-1.58,7.57-3.12,11.19-4.6.61-.93,1.22-1.85,1.83-2.77l-13.11,5.77c-.23-5.08.07-9.86,1.02-14.18,8.55-3.83,16.84-7.32,24.81-10.48,16.18-23.69,27.89-39.5,28.32-40.08-11.16,6.85-25.32,13.4-41.09,19.54-12.78.22-25.54-.43-37.49-1.53,8.68-11.91,18.32-23.62,28.58-34.82,17.66-2.83,32.6-2.38,42.06.65,5.22,1.67,9.83,5.14,13.92,9.96,2.31-2.15,4.7-4.08,7.16-5.8-2.78-17.57-2.74-36.44-1.39-54.08,9.45,3.82,17.83,7.72,24.6,11.61-1.22,12.92-5.91,26.37-16.75,38.48,21.24-11.4,48.65-10.88,89.73-10.88,15.21,0,23.78,6.6,28.25,16.13,23.54-.61,49.94.94,73.54,3.08-1.19,10.54-4.25,20.21-10.16,28.09-6.75,1.65-13.98,2.87-21.74,3.55-14.53,1.28-27.26,2.1-38.4,2.53-.13.69-.27,1.39-.42,2.08-2.5,16.54-7.54,30.36-7.54,30.36,0,0-5.67,13.8-17.04,34.35-1.98,5.1-4.22,10.1-6.64,15.03,7.98,3.73,13.64,9.01,14.57,15.5.66,4.56,1.36,9.49,2.22,14.78-12.77,2.73-26.72,5.94-40.75,9.1-.37.5-.74,1.01-1.11,1.51,4.52-1.22,9.2-2.3,14.07-3.21,9.54-1.78,18.99-3.23,28.29-4.39.91,5.3,1.99,10.95,3.36,16.91-14.09,5.08-29.29,9.76-45.71,13.89-3.08-3.02-5.97-6.02-8.61-8.97-.49-.55-.96-1.08-1.42-1.62-1.53,1.81-3.09,3.6-4.66,5.36-8.45,9.45-17.75,17.99-27.64,25.81-6.19,6.16-12.7,12.19-19.53,17.98,8.92,3.95,17.04,7.85,24.01,11.48,1.43,8.45,2.53,17.23,3.37,26.1-14.35,5.99-24.66,10.44-30.96,7.91-2.97-13.91-4.76-27-4.88-38.55-21.32,16.84-45.51,31.29-72.59,40.86ZM1807.74,464.14c1.02-1.2,2.1-2.38,3.21-3.54,10.63,6.27,22.14,13.9,34.05,22.35,4.59,3.26,9.24,6.64,13.92,10.11-10.87-1.14-21.09-1.17-30.66-.41-8.59-14.59-16.24-25.16-20.53-28.5ZM1824.27,493c-12.48,1.29-23.82,3.87-34.02,6.95,2.35-11.95,7.47-23.45,15.91-33.92,2.26,4.67,8.93,14.5,18.1,26.96ZM1816.4,455.31c.58-.52,1.15-1.03,1.71-1.53,10.7,1,21.71,2.48,32.74,4.28,4.26,10.75,9.64,22.16,16.52,34.17-17.92-11.84-35.55-24.4-50.97-36.92ZM1845.38,403.44c14.5-1.55,28.58-2.43,42.01-2.82-11.06,5.73-23.07,11.21-36.08,16.35-2.31-4.67-4.31-9.2-5.93-13.53ZM1850.12,456.19c-9.86-1.17-19.56-2.87-28.84-5.19,8.37-7.25,15.48-12.62,21.62-16.37,1.95,6.84,4.31,14.03,7.22,21.56ZM1723.34,514.26c-2.14-4.6-2.9-12.22-2.3-24,.13-2.47.47-4.79,1-6.98,1.13,9.85,1.4,20.53,1.3,30.98ZM1722.51,542.44c-.1,2.77-.2,5.43-.27,7.93-1.25-.45-2.42-.99-3.51-1.62,1.05-2.18,2.33-4.28,3.78-6.31ZM1739.5,647.4c-1.63,1.28-3.33,2.56-5.09,3.83-5.16-14.57-10.22-30.51-13.86-45.77,4.68-2.02,9.69-2.41,14.96-.57,15.97,5.6,12.67,23.86,4,42.51ZM1736.78,551.71c-1.94-6.42-3.73-12.8-5.32-19.06,7.75-6.87,17.63-12.69,28.18-17.52.87,10.09,1.4,20.24,1.69,30.1-3.87,1.17-7.8,2.39-11.81,3.67-4.67,1.49-8.9,2.4-12.74,2.81ZM1759.55,615.28c-2.08-5.13-4.15-10.38-6.2-15.7-.09-9.5,2.93-17.91,8.17-25.37-.26,17.01-1.11,31.56-1.97,41.07ZM1762.78,489.45c4.27,3.41,8.38,8.78,12.31,15.67-2.46.92-4.83,1.85-7.12,2.77-1.89-5.92-3.64-12.1-5.2-18.44ZM1769.04,511.13c2.59-1.02,5.18-1.98,7.78-2.88,4.31,8.14,8.4,18.06,12.25,29.15-2.69.7-5.42,1.44-8.2,2.2-4.23-8.12-8.26-17.82-11.83-28.46ZM1788.06,551.54c1.56-.9,3.16-1.78,4.79-2.63,1.2,3.85,2.38,7.8,3.53,11.83-2.75-2.18-5.54-5.3-8.32-9.2ZM1866.61,580.47c-25.46-1.3-49.78-6.04-66.49-17.07-2.35-4.96-4.37-10.02-6.04-15.13,16.48-8.47,35.73-14.59,53.32-18.93,7.6,16.45,14.55,34.21,19.21,51.13ZM1848.6,524.72c-3.13-3.94-6.17-7.83-9.11-11.62,2.01,3.92,4.01,7.97,5.99,12.13-15.28,2.53-33.52,6.24-54.49,11.66-2.36-10.92-2.97-21.95-1.45-32.68,15.66-4.49,29.81-6.87,37.65-7.28,3.78,5.08,7.93,10.52,12.3,16.17-2.94-5.73-5.88-11.16-8.75-16.2.7.04,1.29.1,1.75.2,3.13.69,17.38,10.56,36.75,24.78-6.06.69-12.94,1.61-20.63,2.83ZM1899.05,457.76c-7.44.37-15.06.47-22.73.28-6.99-10.03-13.5-20.11-19-29.81,17.68-4.16,25.91,10.8,41.73,29.53ZM1870.08,395.17c-7.37.96-16.23,2.57-26.01,4.57-2.09-6.29-3.32-12.11-3.41-17.25-.12-6.27,2.34-13.02,6.72-20.04,19.93,5.78,37.73,15.5,53.64,27.48-11.26,2.21-21.87,4.05-30.94,5.23ZM1880.69,368.23c-9.93-3.81-18.71-8.98-26.48-15.14,4.36-5.27,9.6-10.63,15.48-16,18.46,9.82,31.21,20.08,33.67,29.56.9,3.48,1.65,6.57,2.28,9.32-7.86-1.83-16.18-4.37-24.95-7.74Z"/>
      <path class="cls-2" d="M1933.83,379.8c8.69-5.12,16.56-10.76,23.68-16.7-.01-.71-.04-1.42-.05-2.13-.05-3.1-.1-6.2-.15-9.3-9.19,8.68-19.78,17.46-32.01,26.04-13.47-9.16-30.06-24.14-44.62-48.05-.29-.47-.55-.93-.81-1.39,3.55-2.92,7.24-5.83,11.05-8.71,39.35-6.35,64.65-17.2,64.65-17.2,0,0-24.12,3.43-52.77,8.51,5.48-3.87,11.08-7.68,16.71-11.37,12.04.16,24.86,1.4,36.06,2.86.03,0,.06,0,.09.01-.55-9.13-1.27-18.25-2.26-27.37-1.85-11.8-4.09-23.69-6.81-35.49-.56-.93-1.12-1.87-1.68-2.81-7.55-12.74-14.77-25.7-23.12-37.93-.12-.14-.25-.26-.37-.4-6.55-4.95-13.38-9.62-20.11-14.83-2.01-1.56-4.18-2.97-6.47-4.29-6.38-2.23-12.85-4.17-19.38-5.85-9.76,6.59-19.58,12.48-26.6,15.2-11.32,4.39-33.46,10.68-53.44,11.63-.23-5.66-.29-10.49-.28-14.21-.65,3.51-2,8.22-4.64,14.34-17.85.02-33-4.93-35.56-20.34-3.51,1.01-6.98,2.06-10.41,3.16.56,2.82,1.03,5.73,1.35,8.75-5.25-1.33-10.34-2.65-15.28-3.96-13.79,5.09-26.41,10.81-36.99,16.83-31.48,17.9-62.73,40.17-90.69,72.8-4.65,7.41-9.33,14.81-14.37,21.94-13.22,18.69-25.93,37.79-35.8,58.46-2.45,6.48-4.7,13.03-6.82,19.62,1.85-1.36,3.7-2.72,5.55-4.05,9.95-4.32,20.59-8.92,31.51-13.61-6.55,18.06-15.33,35.32-26.79,49.9-6.03-3.71-11.54-7.48-16.55-11.17-4.13,14.86-7.76,29.86-11.39,44.85-3.97,16.4-7.98,32.79-12.75,48.98-1.9,6.42-3.73,12.83-5.39,19.26-.79,5.33-1.55,10.75-2.26,16.27,3.58-5.68,7.37-11.54,11.24-17.35l9.96-1.14c3.02,14.22,7.84,45.77-.9,74.44-6.83,1.22-14.16,2.34-21.77,3.38-.43,2.07-.93,4.12-1.49,6.14-.22.81-.46,1.6-.71,2.4.15,2.2.32,4.36.52,6.49,4.61,17.64,9.05,35.35,15.23,52.45,1.95,3.92,4.08,7.73,6.38,11.45.12-.05.23-.11.34-.16,6.2-2.43,9.76,3.73,11.37,12.01,15.03,10.17,31.26,18.75,47.8,26.2,11.9,4.74,24.1,9.11,36.49,12.58,0-.15,0-.29,0-.43,8.18-.06,18.78-1.92,29.1-4.3-1.41,2.79-2.22,4.31-2.22,4.31l55.42-5.56c11.31-6.71,22.41-13.75,33.42-20.94,11.54-7.53,22.87-15.45,34.52-22.81-2.11-4.63-4.24-9.79-6.33-15.54l3.2-1.21,7.98,13.75c.88-.53,1.76-1.05,2.65-1.56-1.99-4.33-4.08-8.95-6.25-13.84l39.6-14.96c.36,1.84.71,3.68,1.05,5.5,23.25-20.3,46.89-44.8,67.95-73.8-10.23-11.78-20.9-24.67-30.92-37.22,7.37-1.73,14.38-3.15,20.68-4.3,7.85,5.79,16.47,12.23,25.46,19,.76-1.22,1.5-2.46,2.25-3.7,4.22-7.9,8.12-15.99,11.63-24.3-1.49,3.54-2.99,7.08-4.48,10.63,2.53-5.94,5.09-11.87,7.66-17.78-11.03-13.27-23.22-28.64-34.48-44.37,10.56,2.2,20.85,4.58,30.59,6.97,4.32,4.24,9.18,8.5,14.73,12.62,3.08-7.02,6.15-14.05,9.18-21.09.47-1.16.91-2.32,1.37-3.48.64-1.85,1.27-3.71,1.89-5.57-8.5,1.75-17.78,3.1-27.53,3.97-17.51-17.29-23.97-36.74-5.26-56.59,2.95,0,5.86.03,8.73.08,11.08,9.77,21.12,20.55,30.28,31.64.08-.34.17-.68.24-1.03,4.51-19.43,8.14-37.1,11.01-53.21-2.02.49-4.06.98-6.12,1.47-4.87.47-10.03.65-15.48.47ZM1920.72,230.14c-7.96-1.5-16.33-3.11-25-4.83,8-2.27,15.94-4.32,23.66-6.08.54,3.63,1,7.27,1.34,10.9ZM1908.66,190.73c2.67,2.75,4.9,5.17,6.81,7.33.88,4.12,1.73,8.34,2.5,12.62-.21.04-.42.08-.63.12-10.72,2.13-23,6.59-35.58,11.71-20.1-4.07-41.37-8.57-62.48-13.25,28.78-19.1,74.03-34.36,89.38-18.53ZM1595.61,344.89c11.61-6.83,23.09-13.07,34.3-18.74,3.72,2.26,7.17,4.98,10.25,8.25l-47.99,21.11c1-3.5,2.15-7.04,3.44-10.62ZM1552.09,373.14c11.35-8.11,22.76-15.63,34.07-22.57-.95,2.98-1.95,5.95-3.01,8.91l-31.06,13.66ZM1524.45,502.81c10.14-14.69,20.51-28.24,29.2-36.48,2.64,7.06,4.27,14.25,4.35,21.29.01,1.15.02,2.33.03,3.51-12.25,4.4-23.7,8.35-33.58,11.68ZM1542.18,508.08l15.81-1.8c-.19,17.5-.82,36.11-1.44,51.1-7.72,7.69-15.41,15.15-22.7,22.11,1.44-31.86,5.64-57.62,8.33-71.4ZM1600.45,665.11c-.45,8.58-4.49,16.04-10.98,22.54-22.9-14.83-48.9-37.69-54.83-67.45,8.96.85,18.33,2.47,27.22,5.29,12.4,3.94,26.15,14.11,38.51,25.32.29,4.66.33,9.44.08,14.3ZM1586.88,605.27c5.1,8.16,9.01,18.18,11.33,29.35-6.53-7.9-10.13-17.94-11.33-29.35ZM1621.32,687.22c-.26-5.54-.46-10.87-.59-16.02,2.28,2.49,4.4,4.86,6.31,7.05-1.85,3.31-3.76,6.31-5.72,8.97ZM1629.41,673.8c-2.34-3.29-5.25-7.19-8.84-11.8-.91-88.96,18.92-116.84,40.58-118.58-5.87,52.14-16.94,101.15-31.74,130.39ZM1674.03,661.17c-1.9,2.47-3.79,4.88-5.64,7.21-4.2-15.02-6.1-36.09-1.38-65.08,2.95-18.14,6.36-37.4,11.24-56.5,8.09,3.63,15.72,9.71,21.87,16.31-3.9,34.35-15.15,69.86-26.09,98.05ZM1650.87,521.67c-20.67,14.84-41.59,28.19-58.94,38.2,2.69-9.72,6.28-19.68,10.56-29.61-5.92-.94-10.41-3.16-13.66-6.45-8.34,9.17-17.4,18.61-26.56,27.85,2.08-10.75,4.55-23.72,7.31-38.67.52-2.8,1.22-5.56,2.07-8.26l10.35-1.18c-.04-6.59,1.13-14.17,3.26-22.46-.73.28-1.46.56-2.18.83.99-1.42,2.02-2.79,3.07-4.12,1.61-5.74,3.67-11.81,6.07-18.11,1.1-4.57,2.52-9.05,4.43-13.6,3.36-7.96,7.44-15.92,12.2-23.48,1.78-3.54,3.62-7.1,5.51-10.69-7.07.56-14.15,1.01-21,1.29-7.55-16.21-7.31-35.9-1.36-57.11,16.43-7.04,33.22-14.18,48.98-20.77,3.37,3.76,6.31,8.17,8.7,13.36.23.49.45,1.01.67,1.52,2.21-3.52,4.42-6.99,6.61-10.4-.64-3.62-1.09-7.16-1.32-10.58,3.83-1.58,7.57-3.12,11.19-4.6.61-.93,1.22-1.85,1.83-2.77l-13.11,5.77c-.23-5.08.07-9.86,1.02-14.18,8.55-3.83,16.84-7.32,24.81-10.48,16.18-23.69,27.89-39.5,28.32-40.08-11.16,6.85-25.32,13.4-41.09,19.54-12.78.22-25.54-.43-37.49-1.53,8.68-11.91,18.32-23.62,28.58-34.82,17.66-2.83,32.6-2.38,42.06.65,5.22,1.67,9.83,5.14,13.92,9.96,2.31-2.15,4.7-4.08,7.16-5.8-2.78-17.57-2.74-36.44-1.39-54.08,9.45,3.82,17.83,7.72,24.6,11.61-1.22,12.92-5.91,26.37-16.75,38.48,21.24-11.4,48.65-10.88,89.73-10.88,15.21,0,23.78,6.6,28.25,16.13,23.54-.61,49.94.94,73.54,3.08-1.19,10.54-4.25,20.21-10.16,28.09-6.75,1.65-13.98,2.87-21.74,3.55-14.53,1.28-27.26,2.1-38.4,2.53-.13.69-.27,1.39-.42,2.08-2.5,16.54-7.54,30.36-7.54,30.36,0,0-5.67,13.8-17.04,34.35-1.98,5.1-4.22,10.1-6.64,15.03,7.98,3.73,13.64,9.01,14.57,15.5.66,4.56,1.36,9.49,2.22,14.78-12.77,2.73-26.72,5.94-40.75,9.1-.37.5-.74,1.01-1.11,1.51,4.52-1.22,9.2-2.3,14.07-3.21,9.54-1.78,18.99-3.23,28.29-4.39.91,5.3,1.99,10.95,3.36,16.91-14.09,5.08-29.29,9.76-45.71,13.89-3.08-3.02-5.97-6.02-8.61-8.97-.49-.55-.96-1.08-1.42-1.62-1.53,1.81-3.09,3.6-4.66,5.36-8.45,9.45-17.75,17.99-27.64,25.81-6.19,6.16-12.7,12.19-19.53,17.98,8.92,3.95,17.04,7.85,24.01,11.48,1.43,8.45,2.53,17.23,3.37,26.1-14.35,5.99-24.66,10.44-30.96,7.91-2.97-13.91-4.76-27-4.88-38.55-21.32,16.84-45.51,31.29-72.59,40.86ZM1807.74,464.14c1.02-1.2,2.1-2.38,3.21-3.54,10.63,6.27,22.14,13.9,34.05,22.35,4.59,3.26,9.24,6.64,13.92,10.11-10.87-1.14-21.09-1.17-30.66-.41-8.59-14.59-16.24-25.16-20.53-28.5ZM1824.27,493c-12.48,1.29-23.82,3.87-34.02,6.95,2.35-11.95,7.47-23.45,15.91-33.92,2.26,4.67,8.93,14.5,18.1,26.96ZM1816.4,455.31c.58-.52,1.15-1.03,1.71-1.53,10.7,1,21.71,2.48,32.74,4.28,4.26,10.75,9.64,22.16,16.52,34.17-17.92-11.84-35.55-24.4-50.97-36.92ZM1845.38,403.44c14.5-1.55,28.58-2.43,42.01-2.82-11.06,5.73-23.07,11.21-36.08,16.35-2.31-4.67-4.31-9.2-5.93-13.53ZM1850.12,456.19c-9.86-1.17-19.56-2.87-28.84-5.19,8.37-7.25,15.48-12.62,21.62-16.37,1.95,6.84,4.31,14.03,7.22,21.56ZM1723.34,514.26c-2.14-4.6-2.9-12.22-2.3-24,.13-2.47.47-4.79,1-6.98,1.13,9.85,1.4,20.53,1.3,30.98ZM1722.51,542.44c-.1,2.77-.2,5.43-.27,7.93-1.25-.45-2.42-.99-3.51-1.62,1.05-2.18,2.33-4.28,3.78-6.31ZM1739.5,647.4c-1.63,1.28-3.33,2.56-5.09,3.83-5.16-14.57-10.22-30.51-13.86-45.77,4.68-2.02,9.69-2.41,14.96-.57,15.97,5.6,12.67,23.86,4,42.51ZM1736.78,551.71c-1.94-6.42-3.73-12.8-5.32-19.06,7.75-6.87,17.63-12.69,28.18-17.52.87,10.09,1.4,20.24,1.69,30.1-3.87,1.17-7.8,2.39-11.81,3.67-4.67,1.49-8.9,2.4-12.74,2.81ZM1759.55,615.28c-2.08-5.13-4.15-10.38-6.2-15.7-.09-9.5,2.93-17.91,8.17-25.37-.26,17.01-1.11,31.56-1.97,41.07ZM1762.78,489.45c4.27,3.41,8.38,8.78,12.31,15.67-2.46.92-4.83,1.85-7.12,2.77-1.89-5.92-3.64-12.1-5.2-18.44ZM1769.04,511.13c2.59-1.02,5.18-1.98,7.78-2.88,4.31,8.14,8.4,18.06,12.25,29.15-2.69.7-5.42,1.44-8.2,2.2-4.23-8.12-8.26-17.82-11.83-28.46ZM1788.06,551.54c1.56-.9,3.16-1.78,4.79-2.63,1.2,3.85,2.38,7.8,3.53,11.83-2.75-2.18-5.54-5.3-8.32-9.2ZM1866.61,580.47c-25.46-1.3-49.78-6.04-66.49-17.07-2.35-4.96-4.37-10.02-6.04-15.13,16.48-8.47,35.73-14.59,53.32-18.93,7.6,16.45,14.55,34.21,19.21,51.13ZM1848.6,524.72c-3.13-3.94-6.17-7.83-9.11-11.62,2.01,3.92,4.01,7.97,5.99,12.13-15.28,2.53-33.52,6.24-54.49,11.66-2.36-10.92-2.97-21.95-1.45-32.68,15.66-4.49,29.81-6.87,37.65-7.28,3.78,5.08,7.93,10.52,12.3,16.17-2.94-5.73-5.88-11.16-8.75-16.2.7.04,1.29.1,1.75.2,3.13.69,17.38,10.56,36.75,24.78-6.06.69-12.94,1.61-20.63,2.83ZM1899.05,457.76c-7.44.37-15.06.47-22.73.28-6.99-10.03-13.5-20.11-19-29.81,17.68-4.16,25.91,10.8,41.73,29.53ZM1870.08,395.17c-7.37.96-16.23,2.57-26.01,4.57-2.09-6.29-3.32-12.11-3.41-17.25-.12-6.27,2.34-13.02,6.72-20.04,19.93,5.78,37.73,15.5,53.64,27.48-11.26,2.21-21.87,4.05-30.94,5.23ZM1880.69,368.23c-9.93-3.81-18.71-8.98-26.48-15.14,4.36-5.27,9.6-10.63,15.48-16,18.46,9.82,31.21,20.08,33.67,29.56.9,3.48,1.65,6.57,2.28,9.32-7.86-1.83-16.18-4.37-24.95-7.74Z"/>
    </g>
  </g>
</svg>