<?xml version="1.0" encoding="UTF-8"?>
<svg id="Calque_5" xmlns="http://www.w3.org/2000/svg" viewBox="0 0 1051.68 871.53">
  <defs>
    <style>
      .cls-1 {
        fill: #038b00;
        opacity: .46;
        stroke: #038b00;
        stroke-miterlimit: 10;
        stroke-width: .25px;
      }
    </style>
  </defs>
  <path class="cls-1" d="M559.38.32c-57.79,271.69-337.9,519.69-293.94,497.71,43.97-21.98,373.71-109.91,708.55-61.53C803.24,374.98,559.38.32,559.38.32ZM784,289.33s-329,45-383,67c54.9-44.78,161-262.65,161-319,0,0,221,292,315,361,13.93,5.07-35.73-17-40-17-2.59,0-64.05-18.74-72-24-28.02-10.19-73.43-20.65-148-10-175,25,167-58,167-58Z"/>
</svg>