<?xml version="1.0" encoding="UTF-8"?>
<svg id="Calque_13" xmlns="http://www.w3.org/2000/svg" viewBox="0 0 2107 1562.05">
  <defs>
    <style>
      .cls-1 {
        fill: #038b00;
        opacity: .6;
        stroke: #038b00;
        stroke-miterlimit: 10;
        stroke-width: .25px;
      }
    </style>
  </defs>
  <path class="cls-1" d="M1554.04,184.37c-40.05,12.32-690.04,313.34-690.04,313.34l73.93-10.56s197.15-21.12,362.62,24.64c-217.18-57.15,31.69-200.68,49.29-214.76,17.6-14.08,249.96-126.74,204.2-112.66ZM1022.43,466.02c-44.77,10.16-80.97,14.08-80.97,14.08,17.6-17.6,249.96-123.22,235.88-112.66-14.08,10.56-110.14,88.42-154.91,98.58ZM1191.42,469.54s-77.45,3.52-102.1-17.61c49.29-59.84,228.84-151.38,228.84-151.38-168.99,109.14-126.74,168.99-126.74,168.99Z"/>
</svg>