<?xml version="1.0" encoding="UTF-8"?>
<svg id="Calque_4" xmlns="http://www.w3.org/2000/svg" viewBox="0 0 1051.68 871.53">
  <defs>
    <style>
      .cls-1 {
        fill: #038b00;
        opacity: .6;
        stroke: #038b00;
        stroke-miterlimit: 10;
        stroke-width: .25px;
      }
    </style>
  </defs>
  <path class="cls-1" d="M878.9,209.98c-66.87,5.49-323.29,26.24-379.12,26.24-64.34,0-110.3-147.06-110.3-147.06,18.38,183.83-64.34,321.7-109.38,415.35,263.5-245.27,531.67-287.59,598.8-294.53ZM417.05,217.84c18.22,30.37,128.71,32.64,189.12,30.35,13.74-2.73,25.49-4.19,34.19-3.95,14.67.4-3.18,2.78-34.19,3.95-54.51,10.81-141.93,42.49-209.96,76.18,15.92-22.15,20.85-106.53,20.85-106.53Z"/>
  <path class="cls-1" d="M878.9,209.98c10.19-.84,16.1-1.33,16.1-1.33,0,0-5.73.26-16.1,1.33Z"/>
</svg>