<?xml version="1.0" encoding="UTF-8"?>
<svg id="triangles" xmlns="http://www.w3.org/2000/svg" viewBox="0 0 2892.4 2178">
  <defs>
    <style>
      .cls-1 {
        fill: #fff;
        opacity: .46;
        stroke: #000;
        stroke-miterlimit: 10;
        stroke-width: .25px;
      }
    </style>
  </defs>
  <g id="Calque_5">
    <path class="cls-1" d="M1725.38,228.99c-57.79,271.69-337.9,519.69-293.94,497.71,43.97-21.98,373.71-109.91,708.55-61.53-170.76-61.53-414.62-436.18-414.62-436.18ZM1950,518s-329,45-383,67c54.9-44.78,161-262.65,161-319,0,0,221,292,315,361,13.93,5.07-35.73-17-40-17-2.59,0-64.05-18.74-72-24-28.02-10.19-73.43-20.65-148-10-175,25,167-58,167-58Z"/>
  </g>
</svg>