<?xml version="1.0" encoding="UTF-8"?>
<svg id="triangles" xmlns="http://www.w3.org/2000/svg" viewBox="0 0 2892.4 2178">
  <defs>
    <style>
      .cls-1 {
        fill: #fff;
        opacity: .67;
        stroke: #000;
        stroke-miterlimit: 10;
        stroke-width: .25px;
      }
    </style>
  </defs>
  <g id="Calque_6">
    <path class="cls-1" d="M1620.68,303c65.68,56.3,18.77,187.65-65.68,380,140.74-239.26,248.64-290.86,380-361.23-192.35,70.37-314.32-18.77-314.32-18.77ZM1728.58,424.98c-8.03,23.22-88.69,113.61-111.35,141.76-2.27,5.23-4.28,8.27-5.94,8.36-.1-.59,2.13-3.63,5.94-8.36,11.52-26.5,29.99-110.36,45.67-165.22,0,0,37.53-60.99,56.3-46.91,18.77,14.07,18.77,43.25,9.38,70.37ZM1745,361.89c18.45,5.21,83.67-3.16,109.95-7.4,2.88-1.07,5.43-1.79,7.45-1.99,7.32-.74,3.01.3-7.45,1.99-33.8,12.5-120.2,78.39-102.91,61.1,18.77-18.77-7.04-53.7-7.04-53.7Z"/>
  </g>
</svg>