<?xml version="1.0" encoding="UTF-8"?>
<svg id="Calque_7" xmlns="http://www.w3.org/2000/svg" viewBox="0 0 1051.68 796.53">
  <defs>
    <style>
      .cls-1 {
        fill: #038b00;
        opacity: .54;
        stroke: #038b00;
        stroke-miterlimit: 10;
        stroke-width: .25px;
      }
    </style>
  </defs>
  <path class="cls-1" d="M481.42,319.09c-20.16,31.18-40.63,67.39-60.42,109.45,24.01-41.34,43.87-77.51,60.42-109.45Z"/>
  <path class="cls-1" d="M638.94,134.63c-30.06-3.76-75.15-26.3-75.15-26.3-8.7,43.5-26.39,102.72-82.37,210.77,39.05-60.4,76.89-101.84,106.15-129.88-6.3,5.62-32.82,27.57-42.56,24.33,0,0,15.03-67.64,45.09-75.15,30.06-7.52,46.52-3.76,42.05,0-4.47,3.76-44.37,50.18-43.21,49.51,0,0-.02.02-.02.02,40.86-38.94,64.43-51.49,50.03-53.3Z"/>
</svg>