<?xml version="1.0" encoding="UTF-8"?>
<svg id="triangles" xmlns="http://www.w3.org/2000/svg" viewBox="0 0 2892.4 2178">
  <defs>
    <style>
      .cls-1 {
        fill: #fff;
        opacity: .49;
        stroke: #000;
        stroke-miterlimit: 10;
        stroke-width: .25px;
      }
    </style>
  </defs>
  <g id="Calque_8">
    <path class="cls-1" d="M1722.51,235.98c11.87-88.99-73.11,344.72-161.14,412.63-88.03,67.92,0,11.87,0,11.87,0,0,221.52-198.3,350.99-193.12-112.72-29.66-201.71-142.39-189.85-231.38ZM1652.54,535.77c-11.77-25.68,75.9-222.67,75.9-222.67,0,0,6.03,14.38,17.8,59.33,11.77,44.95,35.78,33.64,59.33,59.33-58.86,77.05-141.26,129.7-153.03,104.01ZM1787.77,479.22c-11.87,0,29.66-35.6,29.66-35.6,0,0,18.98,10.54,29.93,16.54.96.37,1.92.72,2.84,1.25,8.33,4.79,4.58,2.81-2.84-1.25-20.45-7.93-48.26,19.05-59.6,19.05Z"/>
  </g>
</svg>