<?xml version="1.0" encoding="UTF-8"?>
<svg id="triangles" xmlns="http://www.w3.org/2000/svg" viewBox="0 0 2892.4 2178">
  <defs>
    <style>
      .cls-1 {
        fill: #fff;
        opacity: .54;
        stroke: #000;
        stroke-miterlimit: 10;
        stroke-width: .25px;
      }
    </style>
  </defs>
  <g id="Calque_9">
    <path class="cls-1" d="M1837.49,278.68c-14.54-58.18-116.35,218.16-494.49,363.6,0,0,509.04-87.26,829,72.72-349.05-218.16-319.96-378.14-334.51-436.32ZM1473.89,613.19c26.81-13.4,275.96-212.09,314.87-243.17,3.31-2.64,5.1-4.07,5.1-4.07l-1.79,1.43c-59.96,103.24-41.84,158.55-56.39,231.27-43.63,0-290.88,29.09-261.79,14.54ZM1808.4,409.58c-9.79,58.74,118.69,170.09,181.63,218.93,7.8,4,15.28,8.4,21.99,13.77,23.77,19.02,8.58,9.96-21.99-13.77-76.78-39.36-199.52-18.38-232.53-48.49-36.36-33.17,50.9-170.44,50.9-170.44Z"/>
  </g>
</svg>