<?xml version="1.0" encoding="UTF-8"?>
<svg id="Calque_9" xmlns="http://www.w3.org/2000/svg" viewBox="0 0 1051.68 801.32">
  <defs>
    <style>
      .cls-1 {
        fill: #038b00;
        opacity: .54;
        stroke: #038b00;
        stroke-miterlimit: 10;
        stroke-width: .25px;
      }
    </style>
  </defs>
  <path class="cls-1" d="M630.49,54.81c-14.54-58.18-116.35,218.16-494.49,363.6,0,0,509.04-87.26,829,72.72C615.95,272.97,645.04,112.98,630.49,54.81ZM266.89,389.32c26.81-13.4,275.96-212.09,314.87-243.17,3.31-2.64,5.1-4.07,5.1-4.07l-1.79,1.43c-59.96,103.24-41.84,158.55-56.39,231.27-43.63,0-290.88,29.09-261.79,14.54ZM601.4,185.7c-9.79,58.74,118.69,170.09,181.63,218.93,7.8,4,15.28,8.4,21.99,13.77,23.77,19.02,8.58,9.96-21.99-13.77-76.78-39.36-199.52-18.38-232.53-48.49-36.36-33.17,50.9-170.44,50.9-170.44Z"/>
</svg>