<?xml version="1.0" encoding="UTF-8"?>
<svg id="triangles" xmlns="http://www.w3.org/2000/svg" viewBox="0 0 2892.4 2178">
  <defs>
    <style>
      .cls-1 {
        fill: #fff;
        stroke: #000;
      }

      .cls-1, .cls-2 {
        opacity: .47;
        stroke-miterlimit: 10;
        stroke-width: .25px;
      }

      .cls-2 {
        fill: #038b00;
        stroke: #038b00;
      }
    </style>
  </defs>
  <g id="Calque_10" data-name="Calque 10">
    <g>
      <path class="cls-2" d="M1434.27,363.5l-2.27-8.5c.24,2.72,1.02,5.56,2.27,8.5Z"/>
      <path class="cls-2" d="M1618,474c-1.13.64-2.27,1.36-3.39,2.17,1.74-.32,2.9-1.03,3.39-2.17Z"/>
    </g>
    <path class="cls-1" d="M1389.78,274.31c12.73,11.21,38.81,40.68,95.14,75.25,56.33,34.58,86.41,44.98,80.12,58.42-6.29,13.44-73.01,7.31-92.83,0s-67.4-99.91-67.4-99.91c0,0-25.56-41.41-16.34-34.81-3.54-2.79-7.05-5.57-10.45-8.35-41.45-33.82-72.5-66.89-87.13-96.9l6.87,22.47s440.11,580.37,440.11,792.06c0,43.6,124.81-335.59,268.07-424.85-76.03,12.3-433.4-140.2-616.15-283.37ZM1753.72,920.27c-19.03,12.45-59.47-273.24-269.62-494.61,0,0,159.2-5.6,214.11,51.88,59.47,62.26,103.09,411.6,55.51,442.72ZM1852.28,673.09c-44.18,8.77-54.94-50.27-88.11-96.09-25.35-35.02-36.58-72.57-40.46-88.33-.58-.25-1.12-.5-1.71-.75v-6.92s.51,2.81,1.71,7.67c38.37,16.84,54.45,27.17,97.42,44.21,43.61,17.29,98.81,38.89,146.7,31.13,23.65-3.83-71.37,100.3-115.55,109.07Z"/>
  </g>
</svg>