<?xml version="1.0" encoding="UTF-8"?>
<svg id="triangles" xmlns="http://www.w3.org/2000/svg" viewBox="0 0 2892.4 2178">
  <defs>
    <style>
      .cls-1 {
        fill: #fff;
        opacity: .61;
        stroke: #000;
        stroke-miterlimit: 10;
        stroke-width: .25px;
      }
    </style>
  </defs>
  <g id="Calque_11">
    <path class="cls-1" d="M1783.88,684.11c-12.07,11.56-25.12,27.88-37.89,44.17,33.81-33.34,75.62-65.22,128.98-99.54-240.3,96-348.84-314.3-356.73-293.26s110.46,586.51,110.46,586.51c19.03-54.86,40.95-99.69,70.7-140.12-4.82,3.77-9.16,5.98-12.84,5.98-21.04,0-105.2-76.27-126.25-257.75-8.21-70.81-13.22-107.19-16.27-125.21-3.13-7.34-4.77-11.55-4.77-11.55,0,0,0-16.62,4.77,11.55,22.25,52.25,119.92,263.96,239.83,259.35,21.04,0,34.19-12.87,0,19.86ZM1662.89,808.91c0,10.52-15.78,52.6-21.04,57.86s-7.89-68.38-36.82-136.77c0,0,57.86,68.38,57.86,78.9Z"/>
  </g>
</svg>