<?xml version="1.0" encoding="UTF-8"?>
<svg id="triangles" xmlns="http://www.w3.org/2000/svg" viewBox="0 0 2892.4 2166.25">
  <defs>
    <style>
      .cls-1 {
        fill: #ffc200;
        opacity: .54;
        stroke: #ffd400;
        stroke-miterlimit: 10;
      }
    </style>
  </defs>
  <g id="Calque_2" data-name="Calque 2">
    <g>
      <path class="cls-1" d="M2059.88,699.34c.14-.09.26-.18.33-.25.24-.24.1-.1-.33.25Z"/>
      <path class="cls-1" d="M1701.28,484.77c-15.32-5.95-28.62-13.7-40.21-22.55,5.86,5.28,11.97,10.58,18.34,15.89,47.66,39.63,245.11,87.19,231.49,95.11-13.62,7.93-306.39,0-306.39,0,0,0-47.66-7.93-34.04-31.7s20.43-174.37,20.43-174.37c4.09,19.04,18.05,40.95,38.84,63.99-37.69-48.15-44.2-104.88-44.2-104.88,17.02,202.11-105.53,392.34-105.53,392.34,149.79-134.74,401.71-134.74,415.32-134.74s40.85,15.85,88.51,7.93c36.34-6.04,66.67-32.76,76.05-41.63-12.36,9.28-61.48,29.74-93.07,29.74-34.04,0-163.41-55.48-265.53-95.11Z"/>
    </g>
  </g>
</svg>