<?xml version="1.0" encoding="UTF-8"?>
<svg id="triangles" xmlns="http://www.w3.org/2000/svg" viewBox="0 0 2892.4 2166.25">
  <defs>
    <style>
      .cls-1 {
        fill: #ffc200;
        opacity: .55;
        stroke: #ffd400;
        stroke-miterlimit: 10;
      }
    </style>
  </defs>
  <g id="Calque_3" data-name="Calque 3">
    <path class="cls-1" d="M1699.58,344.87c-140,167.1-280,194.19-280,194.19,135.48,4.52,207.74,31.61,311.61,58.71,85.81,27.1,126.45,72.26,365.81,189.68-126.45-130.97-374.84-374.84-397.42-442.58ZM1665.35,411.7c67.74-9.03,356.78,311.61,356.78,311.61,0,0-302.58-225.81-356.78-249.05-54.19-23.24,0-62.56,0-62.56ZM1701.48,565.25c-59.37-21.87-76.77-9.03-207.74-36.13-.02.02-.06.05-.08.07-.89.88-.86.81,0,0,.03-.03.04-.04.08-.07,0,0,0,0,0,0,8.41-7.96,89.45-80.63,171.61-45.16,90.94,39.26,383.87,266.45,383.87,266.45,0,0-261.94-153.55-347.74-185.16Z"/>
  </g>
</svg>