<?xml version="1.0" encoding="UTF-8"?>
<svg id="triangles" xmlns="http://www.w3.org/2000/svg" viewBox="0 0 2892.4 2166.25">
  <defs>
    <style>
      .cls-1 {
        fill: #ffc200;
        opacity: .66;
        stroke: #ffd400;
        stroke-miterlimit: 10;
      }
    </style>
  </defs>
  <g id="Calque_13" data-name="Calque 13">
    <path class="cls-1" d="M2200.95,294.15c-54.09,19.31-931.95,491.03-931.95,491.03l99.85-16.55s266.27-33.1,489.75,38.62c-293.32-89.56,42.79-314.48,66.57-336.55,23.77-22.07,337.6-198.62,275.78-176.55ZM1482.97,735.53c-60.46,15.92-109.36,22.07-109.36,22.07,23.77-27.59,337.6-193.1,318.58-176.55-19.02,16.55-148.75,138.56-209.21,154.48ZM1711.2,741.04s-104.61,5.52-137.89-27.6c66.57-93.77,309.07-237.22,309.07-237.22-228.23,171.03-171.17,264.82-171.17,264.82Z"/>
  </g>
</svg>