<?xml version="1.0" encoding="UTF-8"?>
<svg id="triangles" xmlns="http://www.w3.org/2000/svg" viewBox="0 0 2892.4 2166.25">
  <defs>
    <style>
      .cls-1 {
        fill: #ffc200;
        opacity: .55;
        stroke: #ffd400;
      }

      .cls-1, .cls-2 {
        stroke-miterlimit: 10;
      }

      .cls-2 {
        fill: #038b00;
        opacity: .47;
        stroke: #038b00;
        stroke-width: .25px;
      }
    </style>
  </defs>
  <g id="Calque_14" data-name="Calque 14">
    <g>
      <path class="cls-2" d="M1859.4,288.63c1.26-1.8,2.47-3.6,3.6-5.38-1.2,1.77-2.4,3.56-3.6,5.38Z"/>
      <path class="cls-2" d="M1809.49,434.67c.77.6,1.6,1.13,2.51,1.58-.82-.55-1.66-1.07-2.51-1.58Z"/>
    </g>
    <path class="cls-1" d="M2152.2,96.25c-216.62,310.46-767.2,685.64-767.2,685.64,0,0,196.46-27.19,372.15,15.49,48.84,11.86,96.08,29.12,137.04,53.87-114.14-88.96,73.58-476.25,258.02-755ZM1555.61,699.17c60.6-42.42,211.76-171.86,326.53-276.95,77.19-88.48,143.94-157.38,143.94-146.99s-62.9,72.78-143.94,146.99c-114.95,131.77-253.04,306.99-228.3,328.65,0,0-201.63,20.68-98.23-51.7ZM1768.6,783.6s-145.78-58.58,92.04-229.19c31.02-20.68-8.29,230.89-92.04,229.19Z"/>
  </g>
</svg>